<svg xmlns="http://www.w3.org/2000/svg" viewBox="0 0 124.8 124.81"><defs><style>.cls-1{fill:none;stroke:#f3f3f3;stroke-miterlimit:10;stroke-width:4px;}.cls-2{fill:#f3f3f3;}</style></defs><title>logo_footer</title><g id="레이어_2" data-name="레이어 2"><g id="Layer_1" data-name="Layer 1"><path class="cls-1" d="M95.91,2h-67A26.89,26.89,0,0,0,2,28.48V96.33a26.89,26.89,0,0,0,26.89,26.48h67a26.9,26.9,0,0,0,26.9-26.9v-67A26.9,26.9,0,0,0,95.91,2Z"/><path class="cls-2" d="M82.95,20.66c0,10.7-10,15.1-20.55,15.1s-20.55-4.4-20.55-15.1V18.74a1.53,1.53,0,1,1,3.07,0V21c0,7.46,8,11.67,17.49,11.67S79.88,28.48,79.88,21V18.74a1.53,1.53,0,1,1,3.07,0Z"/><path class="cls-2" d="M73.77,66.74A10.79,10.79,0,1,0,84.58,77.52,10.8,10.8,0,0,0,73.77,66.74m0,16.72a5.93,5.93,0,1,1,5.94-5.93,5.94,5.94,0,0,1-5.94,5.93"/><path class="cls-2" d="M107.82,75.32a2.5,2.5,0,0,1-2.5,2.5h0a2.5,2.5,0,0,1-2.5-2.5V69.26a2.5,2.5,0,0,1,2.5-2.5h0a2.5,2.5,0,0,1,2.5,2.5Z"/><path class="cls-2" d="M90.27,66.79a2.53,2.53,0,0,1,1.91.93l15.09,16.45a2.58,2.58,0,0,1,.69,1.69,2.42,2.42,0,0,1-2.43,2.42,2.54,2.54,0,0,1-1.91-.93L92.69,75.66V85.89a2.43,2.43,0,0,1-4.85,0V69.22a2.42,2.42,0,0,1,2.43-2.42"/><path class="cls-2" d="M34.62,66.67h-15a2.5,2.5,0,1,0,0,5h15a2.5,2.5,0,1,0,0-5Z"/><path class="cls-2" d="M29.63,77.27h0v-.92a2.5,2.5,0,0,0-5,0V79.2h0v3.47h0v2.85a2.5,2.5,0,0,0,5,0V84h0Z"/><path class="cls-2" d="M48.89,66.77A10.79,10.79,0,1,0,59.7,77.55,10.8,10.8,0,0,0,48.89,66.77m0,16.72a5.93,5.93,0,1,1,5.94-5.93,5.94,5.94,0,0,1-5.94,5.93"/></g></g></svg>