<svg xmlns="http://www.w3.org/2000/svg" xmlns:xlink="http://www.w3.org/1999/xlink" viewBox="0 0 187.33 187.26"><defs><style>.cls-1{fill:#dd2c50;}.cls-2{clip-path:url(#clip-path);}.cls-3{fill:#fff;}</style><clipPath id="clip-path"><rect class="cls-1" y="0.16" width="187.01" height="187.01"/></clipPath></defs><title>자산 3</title><g id="레이어_2" data-name="레이어 2"><g id="Layer_1" data-name="Layer 1"><rect class="cls-1" y="0.16" width="187.01" height="187.01"/><g class="cls-2"><rect class="cls-1" x="0.02" width="187.32" height="187.26"/></g><path class="cls-3" d="M93.51,52.42C77.26,52.42,61.69,45.6,61.69,29v-3a2.37,2.37,0,1,1,4.75,0v3.54c0,11.54,12.43,18.07,27.07,18.07s27.06-6.53,27.06-18.07V26.08a2.37,2.37,0,1,1,4.75,0v3C125.32,45.6,109.76,52.42,93.51,52.42Z"/><path class="cls-3" d="M110.91,100.45a16.68,16.68,0,1,0,16.71,16.68,16.69,16.69,0,0,0-16.71-16.68m0,25.86a9.18,9.18,0,1,1,9.19-9.18,9.18,9.18,0,0,1-9.19,9.18"/><path class="cls-3" d="M163.53,113.72a3.86,3.86,0,0,1-3.86,3.86h0a3.86,3.86,0,0,1-3.86-3.86v-9.37a3.86,3.86,0,0,1,3.86-3.86h0a3.86,3.86,0,0,1,3.86,3.86Z"/><path class="cls-3" d="M136.4,100.54a3.92,3.92,0,0,1,2.95,1.44l23.32,25.44a4,4,0,0,1,1.06,2.61,3.75,3.75,0,0,1-3.75,3.74,3.92,3.92,0,0,1-2.95-1.44l-16.89-18.08v15.82a3.75,3.75,0,0,1-7.5,0V104.28a3.75,3.75,0,0,1,3.75-3.74"/><path class="cls-3" d="M50.4,100.34H27.25a3.86,3.86,0,1,0,0,7.73H50.4a3.86,3.86,0,1,0,0-7.73Z"/><path class="cls-3" d="M42.69,116.73h0v-1.42a3.86,3.86,0,1,0-7.73,0v4.41h0v5.36h0v4.41a3.86,3.86,0,1,0,7.73,0v-2.36h0Z"/><path class="cls-3" d="M72.45,100.49a16.68,16.68,0,1,0,16.71,16.68,16.69,16.69,0,0,0-16.71-16.68m0,25.86a9.18,9.18,0,1,1,9.19-9.18,9.18,9.18,0,0,1-9.19,9.18"/></g></g></svg>