<svg xmlns="http://www.w3.org/2000/svg" viewBox="0 0 45.89 118"><defs><style>.cls-1{fill:#1d2113;}.cls-2{fill:#263120;}.cls-3{fill:#1c2219;}.cls-4{fill:#9fb558;}.cls-5{fill:#5b875b;}.cls-6{fill:#161814;}.cls-7{fill:#464a32;}.cls-8{fill:#303227;}.cls-9{fill:#98bf58;}.cls-10{fill:#cdfb73;}.cls-11{fill:#a8fc75;}.cls-12{fill:#aac65d;}.cls-13{fill:#79ba5f;}.cls-14{fill:#b1c759;}.cls-15{fill:#61a863;}.cls-16{fill:#bfd866;}.cls-17{fill:#3b4525;}.cls-18{fill:#b8e76b;}.cls-19{fill:#17180e;}.cls-20{fill:#c3e56e;}.cls-21{fill:#d3f879;}.cls-22{fill:#82c44c;}.cls-23{fill:#7dc353;}.cls-24{fill:#bcfc73;}.cls-25{fill:#79b173;}.cls-26{fill:#5e895b;}.cls-27{fill:#75c363;}.cls-28{fill:#90d868;}.cls-29{fill:#3a5b2e;}.cls-30{fill:#7dc75d;}.cls-31{fill:#1d2e16;}.cls-32{fill:#9a6c53;}.cls-33{fill:#97f377;}.cls-34{fill:#fba0a4;}</style></defs><title>fri</title><g id="레이어_2" data-name="레이어 2"><g id="레이어_1-2" data-name="레이어 1"><g id="레이어_2-2" data-name="레이어 2"><g id="레이어_1-2-2" data-name="레이어 1-2"><path class="cls-1" d="M34.15,92.82c-2.47-4.2-2.7-9.3-5.67-13.37-3.51-4.8-7-6-12.47-3.62-2.82-.36-5.62-1-8.49-.68-1.22,0-2.43.21-3.65.13C3.13,75,2.48,74.71,3,73.74c.57-3-1.2-6.49,2.06-8.83,1.28,1.09,1.16,2.61,1.09,4-.1,2.32,1.25,2.67,3.09,2.5,3.2-.07,6.39,0,9.58,0,4.38.41,8.57-.82,12.82-1.54,2.78-.21,4.07-1.2,3.53-4.44-1-5.86-.73-11.93-5.67-16.56-2.26-2.12-1.61-5.66-2.38-8.54.13-3.76.14-7.63,5.57-7.41,2.57.82,3.33,2.72,3.11,5.2a3,3,0,0,1-1.32,1.79c-.88.29-1.65.07-2.53-2.07.36,2.85,1.84,2.32,2.42,3.07a2.33,2.33,0,0,1,.09,2c-2,1.71-3.12,3.45-.21,5.35,2.15,1.4,4.09,1.23,5.48-1C42.23,43.18,37,33.39,32,32.78c-2.31-.31-3.85,2.13-6.18,1.73-1.62-.41-3.28-.07-4.9-.27-2.09-.26-4-.84-3-3.7a4.4,4.4,0,0,1,2.15-.92c3-.45,6.19.33,9.2-.62,2.67-.65,4.85-2.7,7.74-2.72.77.26,1.38.62,1,1.6-2.17,1.93-.5,3.52.49,5.13,2.43,3.94,4.76,7.86,4.52,12.78-.11,2.33-.83,4.92-2.69,5.49-5.4,1.66-3.68,5.85-3.1,8.83,1.58,8.13,2,16.34,2.83,24.54.62,6,2.24,12,1.92,18.13.69,1.12.66,2-.86,2.25-1.21-.76-1.53-2.05-2-3.28a12.52,12.52,0,0,1-.47-3c-1-6.91-.91-13.93-2-20.83-.25-1.5-.29-3.43-2.11-3.46-1.6,0-4-1-4.64,1.88A32,32,0,0,1,33,81a27.43,27.43,0,0,1,2.53,7.92C35.81,90.41,36.77,92.36,34.15,92.82Z"/><path class="cls-2" d="M6.85,74c3.14.19,6.65-1.43,9.15,1.87-9.85,9.88-9.12,22-7.22,34.34.25,1.61.94,3.14,1.27,4.74.2,1,.29,2.16-.74,2.68A2.83,2.83,0,0,1,6,117.36c-1.51-1.32-3.1-2.71-3.44-4.75C.4,99.61.2,86.67,3,73.74l.9,1.08C5.4,76,5.36,77.72,5.1,79.33c-.69,4.23-.44,8.5-.59,12.74-.09,3.79-.08,7.58.06,11.37.13-3.1.08-6.19.14-9.3C5.19,87,8,80.83,12.42,75.23c.57-.21-.44-.71,0-.22C10.21,76.51,8.26,76.64,6.85,74Z"/><path class="cls-3" d="M20.38,30.68l-2.46.24a3.23,3.23,0,0,1-2.61.85,5.22,5.22,0,0,1-1.37-.37,8.63,8.63,0,0,1-1.72-1.21C8.66,28.45,7,29.13,4.9,32.94c-1.29,2.29-.9,5.32-3.2,7.14-.93.13-1.19-.54-1.45-1.2C.25,34.1,2.67,30.43,6,27.51c2.77-2.41,3.72-4.33.53-7-2.44-2-1.73-4,.24-5.87a9.58,9.58,0,0,0,2.53-4.07C11.84,3.32,17.52.24,24.82,0c7.5-.24,12.43,4,15.57,10.28a24.15,24.15,0,0,0,3.89,5.48,2.41,2.41,0,0,1-1.21.78,3.53,3.53,0,0,1-3.88-2.46c-1.9-4.73-5.69-7.61-9.74-10.26-2.87-1.25-5.74-.86-8.6,0l-2.55,1c-5.57,2-6.33,7.77-8.72,12-1.12,2,1.61,4.72,3,6.9a11.21,11.21,0,0,0,4.8,4.15C18.49,28.75,20.08,29,20.38,30.68Z"/><path class="cls-4" d="M29.11,76.75l-2.29-1.86c.25-.38.38-.8.57-.83,10-1.42,10-1.43,11.22,8.47.64,5.43.89,10.91,1.31,16.37-1.15,1-2.39,0-3.59.19-1.81-1.32-.68-3.84-2.18-5.28v-1c1.47-4.37-1.18-8-2.27-11.83a24,24,0,0,1,1.47-4C31.95,76.75,30.48,77.19,29.11,76.75Z"/><path class="cls-5" d="M8.06,72.75c-6.31-.56-2.32-5.08-3-7.81l-.12-4c.41-2.59.63-5.21,1-7.81a6.47,6.47,0,0,1,4.12-5.65,1.54,1.54,0,0,1,1.42.62c.9,3.78-.27,7.49-.41,11.23C9.95,63.75,10.57,68.6,8.06,72.75Z"/><path class="cls-6" d="M10.24,48a11.6,11.6,0,0,0-4.1,10c.07,1.11.12,2.36-1.21,3-1.41-1-.7-2-.35-3.3C5.29,55,6.45,52,2,50.77c-2.47-.69-2-3.42-2-5.54S.18,41,.25,38.86l.94,1.2c1.32,1.31.82,3.12,1.3,4.67.57,1.85.83,4.16,3.79,3.26,1-.46,1.85-1.27,3-1.45C10,46.75,10.49,47.09,10.24,48Z"/><path class="cls-1" d="M41.23,114.24c-1.13,1.24-2.31,2.5-4.1,1.17-1.33-1-2.48-2.14-2.14-4.07s.63-4.15.94-6.22c-.39-1.51-.88-3,.34-4.4,2,0,1.73,2.11,2.85,2.92,1.67,1.29.7,2.42,0,3.79-1.08,2-1.49,4.15,1.54,5.07a1.28,1.28,0,0,1,.58,1.71Z"/><path class="cls-7" d="M42.85,16l1.42-.21c2.24,1,1.9,3.1.57,3.91-3.3,2-3.78,6.1-6.75,8.21l-1.14-1.16C37.63,22.48,41.17,19.75,42.85,16Z"/><path class="cls-8" d="M41.23,114.24l-1-1.38c-1.33-2.84-.77-5.48.85-8l1-2C43.6,106.75,43.9,110.6,41.23,114.24Z"/><path class="cls-8" d="M36.88,100.85c-1.27,1.21-.49,2.87-1,4.26L34.15,93.75c3.21.55,1.27,3.77,2.72,5.24A1.1,1.1,0,0,1,36.88,100.85Z"/><path class="cls-9" d="M14.18,30.75a2.48,2.48,0,0,1,.7.2c3.25,2.79,6.8,4.43,11.17,2.91,2.32.28,3.78-2,6-2,.66.39,1.31.8,1,1.75-5.39-.15-4.34,4.19-5.09,7.28-1.44,6.26.79,12.64-.63,18.93-.55,2.44-.8,4.88-3.08,6.43-4.36.61-7.4-2.49-11-3.93-1.41-2.74.34-4.64,1.82-6.56,4.1-5.34,4.1-5.44-1.86-8.17a5.51,5.51,0,0,1-2.73-2A7.67,7.67,0,0,1,10,41.2c.25-1.44.77-2.82.89-4.29C11.95,34.85,11,31.75,14.18,30.75Z"/><path class="cls-10" d="M42.85,16c.44.81,1.84,1.93.86,2.46-3.5,1.86-3.88,6.08-6.76,8.31-2.19,1.22-4.15,2.95-6.82,3.12-.72.54-1.57.36-2.38.45-3.16.33-5.06-.4-3.3-4A6.5,6.5,0,0,0,24.82,23c2.17-2.89,7.21-3.5,6.71-8.49a64.74,64.74,0,0,0-2.67-7.28c-1-2.35-.82-2.59,1.24-4.35,4.49,3,9,6,10.3,11.91C40.62,15.83,41.88,15.85,42.85,16Z"/><path class="cls-11" d="M25.14,22.86c-.11,1.33,3.39.5,1.73,2.42-5.52,6.36.9,4,3.26,4.61-3.15,1.51-6.49.65-9.75.78L17,28.94c-7.48-6.86-7-17.61,1.07-25l2-1c2.14,2.54,4.53,4.74,4.56,8.63,0,2.21,3.44.38,4.54,2.13,0,2.6-2.11,2-3.57,2.35-1.23.3-3-.42-3.58,1s.68,2.72,1.79,3.74A3.91,3.91,0,0,1,25.14,22.86Z"/><path class="cls-12" d="M24,65.83c2-4.83,3.15-9.55,1.9-15-.68-3-.45-7,2-9.9,1,4.37,2,8.45,6.14,11.4,2,1.46,1.18,5,1.76,7.53.43,1.93.21,4,.72,5.93C37.68,70,35.9,71.34,32,71.08c-.17-3.89-2.27-4.13-5.23-2.76C25.38,68,23.81,67.95,24,65.83Z"/><path class="cls-13" d="M24,65.83l3,2c1.07,3.38-1.36,3.5-3.59,4-1.5.34-3.26-1.08-4.52.7L8,72.69a48.9,48.9,0,0,1,2-12.9,6.19,6.19,0,0,1,3,2C17.24,61.75,20.07,65.34,24,65.83Z"/><path class="cls-14" d="M33,33.61l-1-1.75c2-1.6,3.37-.65,4.54,1a26,26,0,0,1,5,11.78c.38,3.14-.72,5.79-4.29,6.08s-5.54-2-6.45-5.09C30,42.88,32.84,43.82,34,43c.63-.19,2.66,2,1.65-1a8.26,8.26,0,0,1-.55-3.21A7.12,7.12,0,0,0,33,33.61Z"/><path class="cls-15" d="M3.25,92.95c-.62-6.07.54-12.08.65-18.13.74-1.14,1.93-.73,3-.86,2,1.55,4.56,0,7,1.33A35.74,35.74,0,0,0,5.95,93.83C4.58,94.92,3.86,94.12,3.25,92.95Z"/><path class="cls-9" d="M18.95,72.56l-2-1.25C20,69.12,25.31,73.76,27,67.85c1.4-2.44,3.25-2.56,5.4-1s-.12,2.83-.4,4.22A27.55,27.55,0,0,1,18.95,72.56Z"/><path class="cls-16" d="M41.11,104.85c-.1,2.69.49,5.45-.85,8-.93.69-2.62,1.51-2.79.23-.32-2.35-1.78-5.26.77-7.18,1.25-.95.64-1-.1-1.43-.1-1.55.82-2.39,2.09-3Z"/><path class="cls-17" d="M26,33.87c-5,2.89-6.82,2.41-11.17-2.91h3c.46,2,1.82,2.43,3.66,2.18C23.13,32.88,24.79,32.28,26,33.87Z"/><path class="cls-18" d="M29.11,76.75c1.71-1.64,4.15-.22,6.12-1.56-1,2.15-1,4.65-3.36,5.81Z"/><path class="cls-19" d="M35.09,38.82c2,2.11,2.49,4.73,2.68,7.77C35,46.74,35,44.32,34,43l-.17-2.6v-.15Z"/><path class="cls-20" d="M40.23,101.5c0,1.47-1.07,2.21-2.09,3-1.91-.69-.36-2.59-1.26-3.63V99c1-1.43,2,0,3-.14Z"/><path class="cls-21" d="M33.83,40.26v.15c-.74.78-1.25,2.24-2.68,1.36-1-.61-.91-1.67-.18-2.55s-.11-2.73,1.53-3.4C34.15,36.95,32.95,38.92,33.83,40.26Z"/><path class="cls-22" d="M3.25,92.95l2.68.88c0,3.83.08,7.66.08,11.48,0,.92.38,2.19-1,2.39-1.67.23-1.84-1.08-1.83-2.28C3.15,101.26,3.21,97.1,3.25,92.95Z"/><path class="cls-23" d="M8.12,116.35c-3.2-1.25-4.23-3.4-4-6.23,0-.27.91-.78,1-.69C7.4,111.12,7.53,113.66,8.12,116.35Z"/><path class="cls-24" d="M29.09,13.85H21.34C26.95,9,19.45,6.75,20,2.94A11.14,11.14,0,0,1,30,2.8c-1.72,1.25-.7,2.67-.16,4,1,2.39,2.06,4.75,3.1,7.12A2.81,2.81,0,0,1,29.09,13.85Z"/><path class="cls-25" d="M18.08,3.9c-1.31,2.64-2.81,5.2-3.9,7.93C11.69,18,12.93,23.76,17,28.95c-5.94-1.28-6.14-7.74-9.91-11a.5.5,0,0,1,0-.47C11.79,13.82,10.95,5.59,18.08,3.9Z"/><path class="cls-26" d="M6.95,48.86c-3.23,1.75-5,.43-5.6-2.84a44.19,44.19,0,0,1-.23-6C2.63,36.45,3,32.44,5.85,29.39c2.69-2.89,5-3.64,7.26.29-.78,1.92-2.74,2.24-4.27,3.15-1.9,1.13-3.65,2.38-3.26,5,0,1.72-.82,3.6.9,5a3.84,3.84,0,0,1,.8,1C7.46,45.59,6.33,47.16,6.95,48.86Z"/><path class="cls-27" d="M4.85,37.75c-2-3.08.94-4.16,2.52-5.36s3.84-1.81,5.8-2.67l1,1-2.32,6.46C9.45,36.45,7.09,36.29,4.85,37.75Z"/><path class="cls-28" d="M13.06,61.83c-1.5.06-2.89,0-3-2a44.61,44.61,0,0,1,.94-12c-.46-.74-.54-1.42.33-1.94a8.27,8.27,0,0,1,1,.18c8.07,2.45,10,3.08,3.13,10.89C14.11,58.41,14.06,60.31,13.06,61.83Z"/><path class="cls-29" d="M11.3,45.87,11,47.81q-.37.06-.73.15L9.13,46.9c-1.28-.6-1.25-2.08-2-3L6,43.71c-.23-1.26.9-1.87,1.34-2.81.77-1.35.38-3.19,1.8-4.27,2.73.46,1.44,2.59,1.69,4.07Z"/><path class="cls-30" d="M7.09,43.88c2.28-.08,1.92,1.62,2,3L7,48.88C2.81,47.12,6.59,45.53,7.09,43.88Z"/><path class="cls-31" d="M10.81,40.69c-1.37-.88,0-3.16-1.91-3.74-1.37,1.55-.67,3.46-.92,5.2L6,43.7c-4-1.27-1.31-3.85-1.14-5.93,2-4.37,4.44-3.36,7-.54C12.43,38.65,11.73,39.75,10.81,40.69Z"/><path class="cls-32" d="M29.09,13.85H33c.16,5.45-3.23,7.76-7.89,9-1.64-.76-3.39-1.4-4.24-3.21-1.25-2.66-1.67-4.83,2.48-4.88C25.29,14.75,27.37,15.29,29.09,13.85Z"/><path class="cls-33" d="M7.95,42.15C7,40.2,4.67,38,8.87,36.95,9,38.75,10,40.75,7.95,42.15Z"/><path class="cls-34" d="M31.06,16c-1.2,2.8-2.48,4.42-4.76,4.79s-4.16-.64-4.45-2.89c-.36-2.82,2.14-1.7,3.51-1.86C26.95,15.91,28.62,16,31.06,16Z"/></g></g></g></g></svg>