<svg xmlns="http://www.w3.org/2000/svg" viewBox="0 0 36.2 114.03"><defs><style>.cls-1{fill:#13131c;}.cls-2{fill:#09090e;}.cls-3{fill:#22202c;}.cls-4{fill:#2e2c3c;}.cls-5{fill:#6f87c9;}.cls-6{fill:#222531;}.cls-7{fill:#434057;}.cls-8{fill:#4f5069;}.cls-9{fill:#0b0c10;}.cls-10{fill:#211f18;}.cls-11{fill:#3d3e46;}.cls-12{fill:#26272b;}.cls-13{fill:#86a3fd;}.cls-14{fill:#6f7dc1;}.cls-15{fill:#757df3;}.cls-16{fill:#6d73ab;}.cls-17{fill:#696cb6;}.cls-18{fill:#363a60;}.cls-19{fill:#676fac;}.cls-20{fill:#899cf2;}.cls-21{fill:#70649d;}.cls-22{fill:#7083c0;}.cls-23{fill:#70689e;}</style></defs><title>mon_1</title><g id="레이어_2" data-name="레이어 2"><g id="레이어_1-2" data-name="레이어 1"><g id="레이어_2-2" data-name="레이어 2"><g id="레이어_1-2-2" data-name="레이어 1-2"><path class="cls-1" d="M5,37.88C5.28,35,5,32.88,1.93,31c-3.55-2.16-1-6.49-1.62-9.82C-1.28,13.22,4.09,4,13.76.84c.92-.46,1.36,0,1.6.83-.75,2.45-3.22,2.81-4.93,4.08C5.5,9.85,4,15,3.87,21.45s2.86,8.86,8,10.53c.94.31,1.86.69,2.81,1,6.39,2.56,11.48-1.25,16.9-3.43.66-.27,1.3-.82,1.11-1.46-1.6-5.28,1.16-10.83-1.21-16.12-1.55-3.45-4.91-5.35-6.59-8.6A1.73,1.73,0,0,1,25.12,2c6.52,2.25,9.86,6.91,10,13.5.12,3.91-.65,7.8.75,11.76,1,2.86-.65,5.31-4,5.54-1.84.13-3.2.51-4,2.18A11.34,11.34,0,0,1,25.14,37c-6.43,3.7-6.43,3.7-17-1.57-1.29.89-.84,2.83-2.18,3.71C5.2,39.13,4.59,38.88,5,37.88Z"/><path class="cls-2" d="M29.92,63l.16,23c.48,1.31,1.25,2.72-1,3.17-2.29-2.51-.72-5.81-1.78-8.57a13.57,13.57,0,0,1-.41-3c.31-2.77-1.14-2.62-3-1.79a3.42,3.42,0,0,1-2.65.09c-3-2-5.76-1.21-8.29,1a1.1,1.1,0,0,1-1.22.26C9.91,76.32,8.18,75.09,6,76c-1.71,1.61.53,5.09-2.79,5.91.13-7.32-1.93-14.55-1-21.91,3.86,1.79,1.14,5.71,2.69,8.24.43.91.87,1.85,2,2.11,5.21,1.24,10.49,1.92,15.79.9C24,71,27.19,71.1,24.89,68c-1-3.36,2.85-3.12,3.77-5.05A1.13,1.13,0,0,1,29.92,63Z"/><path class="cls-3" d="M4,69c-2.18-2.69.25-6.25-1.7-9A56.85,56.85,0,0,1,5,37.88L6,39c2.77,3.45,1.19,7.49,1.52,11.27,0,1.6,0,3.21-.09,4.8A20.77,20.77,0,0,0,7,59.1a20.88,20.88,0,0,1,.32-2.64c.63-2.27.25-4.6.48-6.89.2-1.13.43-2.25,1.63-2.79a2.7,2.7,0,0,1,1.82,2.71c.3,5.8.33,11.6,0,17.39,0,1.14-.32,2.64-1.58,2.84s-1.58-1.36-2-2.34-1.22-1.52-2-.16A3.59,3.59,0,0,1,4,69Z"/><path class="cls-4" d="M3.25,81.93c2.18-2.28-.73-5.74,1.83-7.94,2.32,3,1.19,6.55,1.47,9.87a45.9,45.9,0,0,0,.54,5.3c.37,5.85.6,11.72,2.74,17.28,0,2.61,1.57-.32,2.07.57.19,1.74,4.31,2.78,1.56,4.67-2.07,1.43-4.44.22-5.93-2.55-2.86-5.34-2.08-11.27-3.34-16.85C3.43,88.94,3.53,85.39,3.25,81.93Z"/><path class="cls-5" d="M28,77l.15,2.76c1.12,3.81-.72,8,1.58,11.67.45,1.62.13,3.35.75,4.95q.1,4.53,0,9.05c-1.51,3.11-3.43,2-5.38.52l.12-3.07A25.06,25.06,0,0,0,26,100a111.56,111.56,0,0,0-.14-13.65,24.87,24.87,0,0,1-1.23-8.94A2.15,2.15,0,0,1,28,77Z"/><path class="cls-6" d="M29.92,63a7.18,7.18,0,0,0-.77,0c-2,.14-3.29,3.39-5.77,1.23a5.82,5.82,0,0,1-.08-3c.68-2.74.24-5.52.42-8.28.12-1.89-.29-4,1.87-5.17,2.81,2,.78,4.93,1.5,7,.32-6.16-1.78-12.39-2-18.82.68-1.09,1.79-.94,2.83-1Z"/><path class="cls-7" d="M11.89,107c-.83-.07-.49,2-1.83,1-1.89-6.29-3.35-12.61-1.51-19.19A35.67,35.67,0,0,1,9,80.91c.39-1.68.56-3.75,3-4a1.14,1.14,0,0,1,.91,0C9.65,86.88,11,97,11.89,107Z"/><path class="cls-8" d="M25,78.05c1.39,2.49.44,5.33,1.2,7.91a55.15,55.15,0,0,1-.09,15l-.83,1.9c-.67-6.73.48-13.53-1.08-20.28-.59-2.55-1.88-4.5-2.94-6.68L23.07,75C24.63,75.44,24.58,76.88,25,78.05Z"/><path class="cls-9" d="M29.88,105.88l.06-9.7c-.12-1.19-1.28-2.69,1-3.17-.18,6,1.35,12-.87,17.93-.83.34-1.18-.17-1.47-.81a3.53,3.53,0,0,1,0-1.31C28.9,107.81,29.57,106.93,29.88,105.88Z"/><path class="cls-10" d="M15.08,1.88l-1.32-1C17.76-1,21.42.4,25.08,2q0,.47,0,.95C21.62,3.77,18.23,4.06,15.08,1.88Z"/><path class="cls-11" d="M29,110l1,1c-1.09,2.2-2.53,3.86-5.24,2.64-1.9-.86-1.3-2.27-.44-3.59a1.19,1.19,0,0,1,1.16-.2C26.64,110.61,27.88,109.42,29,110Z"/><path class="cls-12" d="M30.89,93c-1,.85-.64,2.11-1,3.17l-1-4.22c-.4-1-.69-2.09.27-3s.59-2,.87-3C31.29,88.21,31,90.62,30.89,93Z"/><path class="cls-8" d="M24.92,110h-.58l.81-4.06c1.57-.44,3.17,1.15,4.74-.05.09,1.12.24,2.26-.65,3.18C27.62,108.56,26.63,111,24.92,110Z"/><path class="cls-13" d="M15.08,1.88a17.51,17.51,0,0,1,10,1C32.3,7.76,34,14.24,33.64,23c-.21,5.34-.33,7.22-5.47,9.38-4.86,2-9,3.54-14,1.58-1.37-3.3-4.88-4.87-6.23-8.38C5,18.18,5.66,11.37,10,4.88Z"/><path class="cls-14" d="M25.07,36c.57.25,1.61.48,1.63.77.54,7.94,1.86,15.87,1.18,23.85L26,60.68V48.08c-2.79.92-.54,3.58-1.75,5.05-2,.3-2.64-1.63-3.91-2.52-2-1.36-3.91-1.93-5.64.15s-.79,3.63,1,5c1.53,1.24,3,2.51,3.54,4.55.36,1.62.81,3.21,1.14,4.83a3.59,3.59,0,0,1-6.46,2.79,15,15,0,0,1-3.08-8.15c-.19-4.24.29-8.19-.66-12.39,0-.1-.23-.42-.38-.43s-.39.09-.49.48L8.93,50C8.33,51.16,7.6,52,6.18,51L6,39l1-6C12.87,36.33,18.22,42.16,25.07,36Z"/><path class="cls-15" d="M10,4.88a8.16,8.16,0,0,1-1.2,4.7C5.76,16,7.62,22,10.2,28c.19.44.64,1.19.78,1.15,6.32-1.73,1.61,3.58,3.13,4.87-3.94,0-6.37-4.56-10.7-3.5-.27.07-1.26-1.12-1.15-1.4C4.49,23.71.87,17.75,3.94,12.41,5.6,9.5,6.62,6.23,10,4.88Z"/><path class="cls-16" d="M9.21,47.49c1.72-.22,1.81-.22,1.85,1,.12,3.6.56,7.26.46,10.77s2.48,5.19,3,8a2.32,2.32,0,0,0,3,1.32l.32-.15c1.49-.8,2.11-2,1.08-3.67A7.89,7.89,0,0,1,18.11,60a24.68,24.68,0,0,1,4.28-4.55c.7-.62,1.63-1.24,2.16.29-.14,2.1.4,4.24-.35,6.3v2.84c.94.78-.34,2.33,1,3,.83.64,2.64-1.2,2.74.83S26.65,72,24.63,72.41c-5.93,1.19-11.81.09-17.71-.32-2.24-.15-2.78-1.26-3-3l1-2.21c1.49,0,2.09-1.45,3.27-2,1.26,1.06.77,2.73,1.59,4C9.27,61.76,11.18,54.59,9.21,47.49Z"/><path class="cls-17" d="M12,77c-3,3.6-1.39,8-2.18,12C9,90.8,7.58,90.71,6,90c-1.39-5.27-.87-10.66-.94-16C7.59,74.54,10.67,73.76,12,77Z"/><path class="cls-18" d="M25.26,67.8c-1.5-.59-1-1.85-1-3,1.34-1.42,2.63-3,4.92-1.81C30.32,66.62,25.2,65.1,25.26,67.8Z"/><path class="cls-19" d="M25,78.05l-1.91-3c2.12-.5,5.52-4.22,5,2C26.91,77,25.71,76.88,25,78.05Z"/><path class="cls-19" d="M29.21,89l-.27,3c-1.74-4-.7-8.13-.75-12.22C29.47,82.71,28.51,85.88,29.21,89Z"/><path class="cls-14" d="M8.18,57.19c-.46,1.84,1.4,5.38-1.38,5.2s-.37-3.56-.86-5.45a2.67,2.67,0,0,1,.13-1c1.17-.62-.22-3.41,1.77-2.75C9.26,53.7,8.58,55.78,8.18,57.19Z"/><path class="cls-16" d="M8.18,57.19l-.27-3.54L6.06,56l.11-5,2.75-1C9,52.43,9.7,54.88,8.18,57.19Z"/><path class="cls-20" d="M8.15,64.88c-.27,2-.22,4.58-3.27,2C5,64.56,5.45,62.88,8.15,64.88Z"/><path class="cls-21" d="M6,90l3.85-1c-2,6.37.69,12.69.2,19-3.87-3.21-2.78-8-3.89-12.14C5.69,94.05,6.05,92,6,90Z"/><path class="cls-19" d="M26.09,101q0-7.5.09-15A25.27,25.27,0,0,1,26.09,101Z"/><path class="cls-18" d="M24.19,62l-.26-6.95a1.56,1.56,0,0,1,.1-2.11c.08-1.9-.41-4.09.38-5.64,1-2.08,1.33-.2,1.54.78-1.7,2.75-.53,5.8-.89,8.68C24.83,58.52,25.56,60.43,24.19,62Z"/><path class="cls-22" d="M24.92,110c1.35-.74,2.26-3.5,4.31-.91q-.08.45-.2.9C27.67,110.88,26.31,114.08,24.92,110Z"/><path class="cls-23" d="M24,52.94l-.1,2.11c-1.81,1.8-2.72,4.66-5.83,4.91A7.78,7.78,0,0,0,15,56.88c-3.32-1.94-3.79-4.42-1.17-7.32,2.43-2.68,5-2.06,7.36,0A30.4,30.4,0,0,1,24,52.94Z"/></g></g></g></g></svg>