<svg xmlns="http://www.w3.org/2000/svg" viewBox="0 0 49.23 107.37"><defs><style>.cls-1{fill:#130f15;}.cls-2{fill:#211928;}.cls-3{fill:#24141e;}.cls-4{fill:#5a454a;}.cls-5{fill:#36303d;}.cls-6{fill:#434762;}.cls-7{fill:#393752;}.cls-8{fill:#8063a6;}.cls-9{fill:#895283;}.cls-10{fill:#a64c63;}.cls-11{fill:#7b4276;}.cls-12{fill:#755593;}.cls-13{fill:#7e69a4;}.cls-14{fill:#635c9f;}.cls-15{fill:#96465e;}.cls-16{fill:#717eec;}.cls-17{fill:#8772d2;}.cls-18{fill:#9a6abd;}.cls-19{fill:#7e4ca2;}.cls-20{fill:#8e4a76;}.cls-21{fill:#b45e8c;}.cls-22{fill:#43375d;}</style></defs><title>sun</title><g id="레이어_2" data-name="레이어 2"><g id="레이어_1-2" data-name="레이어 1"><g id="레이어_2-2" data-name="레이어 2"><g id="레이어_1-2-2" data-name="레이어 1-2"><path class="cls-1" d="M34.13,63.19c-2.13,1.23-1.71,3.32-1.69,5.23.09,10.14.22,20.29.33,30.43a11.09,11.09,0,0,1,0,1.5c-.3,2.39.39,5.22-2.4,6.62a2.67,2.67,0,0,1-3.6-.75c-1.32-2.3-.81-4.7.37-7a3.37,3.37,0,0,0,.17-1A1.26,1.26,0,0,1,28.48,98c.54.11,1.1-.08,1.12-.6a253.54,253.54,0,0,0-.33-28.78,51.61,51.61,0,0,1,.23,5.93c-.3,1.75.42,4-2.21,4.61a73.3,73.3,0,0,0-1.16-7.24c-.79-3.07-1.09-6.63-5.55-7-6.08-.47-9.27.88-10.83,6.08A48,48,0,0,0,11,102.24c.49,1.3,1.87,2.56.33,4s-3.09,1.11-4.59.32c-1.75-.91-3.44-2-3.67-4.31-.42-.92.11-1.32.86-1.6a2.64,2.64,0,0,1,1.38.25c.76.53,1,1.59,2.35,2,.07-1.84-1.24-3.14-1.53-4.71a66,66,0,0,1-.18-27.12,3.81,3.81,0,0,0-.24-2.88c-.84-1.11-2.22-1.87-2.3-3.47a3.19,3.19,0,0,1,.32-1.32c1.93-1.5,3.62,1.06,5.51.32a9.51,9.51,0,0,1,1.25-.12,6.4,6.4,0,0,0,3.63-.71,15.31,15.31,0,0,1,6.18-1c3.49.14,6.77,0,6.73-4.81a133.84,133.84,0,0,0,1.85-19.2c0-2.13.18-5.61,4.06-2.73,1.09,6.16.61,12.32-.09,18.48.11.18.2.37.29.55a4.76,4.76,0,0,0,1.13,3.91A23.42,23.42,0,0,0,34.13,63.19Z"/><path class="cls-2" d="M36,29c-2.2,1.34-1,3.37-.68,4.91,1.56,7.08.22,13.76-2.3,20.33v.06c-1.51-3.2.63-6.38,0-9.57v-.49c0-11.33,0-11.33-10.82-11.14a10.5,10.5,0,0,1-5.71-3.54A245.36,245.36,0,0,1,13.42,54c-.32,1.69.12,3.8-2.25,4.5A2.61,2.61,0,0,1,9.49,57c-.29-5.32,1-10.48,1.73-15.69.57-4.3.79-8.53-.33-12.75a10.68,10.68,0,0,1-.65-2.26C7,23.59,6.09,21.48,9.11,17.16,11.35,14,12.17,9.51,14.92,6.1,23.16-4.09,38.65-.28,45.51,8.44c2.35,3,.46,6.91,2.7,9.79a2.32,2.32,0,0,1-1.2.71c-1.63.09-2.61-.75-2.57-2.31.16-6.75-4-10.09-9.57-12.37A13.52,13.52,0,0,0,31.71,3,11.49,11.49,0,0,0,22.54,4C15.82,7.47,13.05,13.67,11.16,21c3.37-.75,4.93,1.76,6.91,3.59,5,4,10.89,3,16.62,2.75C35.51,27.65,36.13,28.05,36,29Z"/><path class="cls-3" d="M10.33,26.26l.88,1.19c.31,1.78-.85,3.15-1.29,4.72a9.6,9.6,0,0,1-.62,1.29A77.62,77.62,0,0,0,3.4,61.68c0,.82-.12,1.64.56,2.28,0,1.59,1.36,2.21,2.18,3.22-.73,1.06-2.07,1.36-2.88,2.32-1.57,3.86-.34,7.9-.79,11.82C2.26,83.14,3,85.46.28,86.17,0,69.33-1.2,52.41,5.09,36.17,6.47,32.68,7.81,29.14,10.33,26.26Z"/><path class="cls-4" d="M.29,86.14c1.79-4.45.35-9.12,1-13.65.23-1.69-.89-3.68,1-5a3.88,3.88,0,0,1,1.1,2.65c.42,10.31,0,20.64.65,31l-1,1.21C-.25,97.36.43,91.7.29,86.14Z"/><path class="cls-5" d="M28,98.28h-.71V79.2c1.56-1.46.43-3.46,1-5.12,1.48.27,1.72,1.42,1.74,2.61.13,6,.12,11.92,0,17.89A3.92,3.92,0,0,1,28,98.28Z"/><path class="cls-6" d="M47,18.43l1.25-.23c2,2.48.43,4.63-1.41,5.57-3.54,1.81-6.67,4.58-10.8,5.19L35,28.1a1.24,1.24,0,0,1,.24-1.27C39.33,24.28,44.59,23.33,47,18.43Z"/><path class="cls-7" d="M34.13,63.19c-1.64-1.72-4.7-3.47.1-5.06a3.37,3.37,0,0,1-.1,5.06Z"/><path class="cls-8" d="M22.15,32a24.28,24.28,0,0,0,2.46-.21c9-1.65,9.64-1.09,9.66,8.4,0,1.32-.14,2.63-.21,4-2.13-.08-1.23-1.73-1.38-2.76-.25-1.71.35-3.49-.41-5.16-.2-.44-.31-1.19-.61-1.28-1.76-.49-1.31,1-1.28,1.75A81.44,81.44,0,0,1,29.15,53c-.3,1.78-.74,3.53-1.11,5.3-4.76,1.33-4.78-2.5-5.7-5.28-.72-2.18-.13-5.29-3.87-5.25-4.17-3-1.75-6.59-.6-9.75A12.94,12.94,0,0,1,22.15,32Z"/><path class="cls-9" d="M22.15,32c-.22,4.24-4.82,6.59-4.64,11.18.07,1.82-.14,3.18,1.65,4.07a3,3,0,0,1,1,3.14c-1.58,4.17-.76,8.3-.1,12.45l-6.93,1.64c-3-1.3-3.85-3.26-1.86-6.08C13.5,48.07,15.18,37.68,15,26.92,17.93,27.5,18.74,31.72,22.15,32Z"/><path class="cls-10" d="M4.1,101.14c-2.67-4.78-1.89-10-2-15.15-.1-6.15.11-12.31.18-18.47l3.84-.33c.84.52,3.3-.57,2.23,1.85C4,78.9,6.28,89,7.35,99c.45,1.88-.84,2.07-2.17,2.22Z"/><path class="cls-11" d="M4,64c-.62.35-1.72,1.39-1.75,0C1.92,53,3.76,42.32,9,32.44c2.58,2.61,1.42,5.91,1.52,8.91A52.4,52.4,0,0,1,7.75,58.8c-.59,1.88-1.54,3.67-3.57,4.5A1.22,1.22,0,0,0,4,64Z"/><path class="cls-12" d="M20,62.84c-2.2-3.38-3.58-6.76-1.41-10.83.7-1.31.39-3.16.54-4.76,1.13-.83,2.38-3.23,3.19.24a60.38,60.38,0,0,1,1.55,6.7c.3,2.63,1.68,3.78,4.13,4C28.41,65,23.48,62.65,20,62.84Z"/><path class="cls-13" d="M28,98.28c1.82-8,1.58-16.12.3-24.21-.31-2.3-.63-4.6-.92-6.9-.13-1.08-.77-2.43,1-2.74s1.88,1,1.93,2.18c.24,5.14.47,10.29.59,15.44.12,5.49.12,11,.13,16.47,0,1.16,0,2.57-1.68,2.48S28.31,99.29,28,98.28Z"/><path class="cls-3" d="M4.17,63.26C9.35,53.52,9.39,43,9,32.39l.38-.29c4.18,1.54,2.79,5.14,2.64,8-.29,5.7-2,11.24-2.29,17,0,.09.16.25.26.27a1.47,1.47,0,0,0,.48-.06l.81,1.15c.08,2.19-.12,4.47,1.86,6.09-1.16,1.29-2-.08-3.06-.31a7.38,7.38,0,0,0-1.34-1.15c.47.36.92.74,1.36,1.13C7.64,66.9,6,64.06,4.17,63.26Z"/><path class="cls-14" d="M32.26,36.23c2.15,2.29-.45,5.66,1.79,7.92l-.94,10.12c-.34.35-.63.92-1,1-1.72.43-.78-1-.7-1.34C32.74,48.09,31.91,42.14,32.26,36.23Z"/><path class="cls-15" d="M5.16,101.14l2.17-2.22a11.64,11.64,0,0,1,.93,1.68c.51,1.41,2.4,2.42,1.37,4.23-.18.32-1.23.36-1.78.2C6,104.51,4.7,103.41,5.16,101.14Z"/><path class="cls-16" d="M47,18.43c.48,2.61-.24,4-3.09,5.06s-5.39,3.67-8.82,3.92a1.25,1.25,0,0,1-1.42-.13c-1-.85-2.12-1.61-1.81-3.2,2.1-5.07.17-10.38.89-15.51.28-2-1-4.83,2.43-5.43,6.6,2.54,11.49,6.26,10.24,14.42C45.44,17.77,46.49,18.14,47,18.43Z"/><path class="cls-17" d="M35.23,3.14c-2.28,5-1.36,10.39-.76,15.41.38,3.16-.59,4.75-2.33,6.61-2.47,2-5.1,1.7-7.77.48-1.54-7,.1-14.11-.25-21.17a2.41,2.41,0,0,1,2.8-2.72c1.81.1,3.64-.3,5.42.32A3.12,3.12,0,0,1,35.23,3.14Z"/><path class="cls-18" d="M32.35,2.08c-1.31.05-2.63.21-3.93.13-3.14-.19-3.57,1.57-3.1,4.07,1.06,5.63-1,11.27,0,16.92.11.6-.76,1.39-1.17,2.1,2.92,2.28,6.85-.44,9.75,1.95l1.2.17a2.85,2.85,0,0,1-.15.69c-6.26,1-12.54,2.07-17.85-2.86-3.17-8.56-1.47-16.17,5-22.11C25.31.81,28.77.87,32.35,2.08Z"/><path class="cls-19" d="M22.09,3.14c-5.35,6.54-5.29,14.29-5,22.11-2-.81-2.53-4.81-6.07-2.31-.94.66-2.67-1.35-1.75-2.61C12.78,15.46,13,8.56,18.62,5,19.77,4.31,20.67,3.26,22.09,3.14Z"/><path class="cls-20" d="M10.43,57.24c-.49.91,0,2.47-2.3,2.65C9,55,10,50.21,10.52,45.41c.5-4.47,2-9.14-1.19-13.32-.46-2,1-3.19,1.88-4.64C15,31.21,13,35.88,12.8,40,12.56,45.8,11.27,51.51,10.43,57.24Z"/><path class="cls-21" d="M10,64.14c-1.64.52-3,.16-3.58-1.55a1.1,1.1,0,0,1,1.13-1.32c1.78.07,2.7,1,2.43,2.89Z"/><path class="cls-22" d="M33.93,27.25H26.74c-1.33,0-2.65,0-2.56-1.9l8-.13C33.3,25.39,34.1,25.9,33.93,27.25Z"/></g></g></g></g></svg>