<svg xmlns="http://www.w3.org/2000/svg" viewBox="0 0 37.95 107.71"><defs><style>.cls-1{fill:#171f22;}.cls-2{fill:#29312f;}.cls-3{fill:#313f3d;}.cls-4{fill:#253537;}.cls-5{fill:#171919;}.cls-6{fill:#303c3a;}.cls-7{fill:#374443;}.cls-8{fill:#638179;}.cls-9{fill:#62bfbd;}.cls-10{fill:#7df8f3;}.cls-11{fill:#68c1bf;}.cls-12{fill:#6eb3ef;}.cls-13{fill:#5690b8;}.cls-14{fill:#38616e;}.cls-15{fill:#74d1da;}.cls-16{fill:#6cc9c7;}.cls-17{fill:#5bafa5;}.cls-18{fill:#64c0ae;}.cls-19{fill:#376d67;}.cls-20{fill:#386961;}</style></defs><title>wed</title><g id="레이어_2" data-name="레이어 2"><g id="레이어_1-2" data-name="레이어 1"><g id="레이어_2-2" data-name="레이어 2"><g id="레이어_1-2-2" data-name="레이어 1-2"><path class="cls-1" d="M19.92,67.57c-3,1.58-3.73,4.44-4,7.46-.72,9.79-.47,19.54,2.23,29,.39,1.37,1.1,2.37-.49,3.26a3.14,3.14,0,0,1-3.7-.41c-2-1.5-2.67-3.59-3.1-6C8.77,89.14,9.21,77.19,7.73,65.43c-.49-3.88-3.48-7.21-2.54-11.76,1.4-6.8.86-13.89,2.64-20.68,1.08-4.13-.89-7.23-4.21-9.13-4.38-2.5-4.48-4.58-1.93-9.06C4,10.8,5.75,6.72,9.29,3.63,11.21,2,13.09.45,15.8.63c1-.48,1.22.13,1.29.93-1.56,1.77-4.15,2-5.66,3.84C6.67,8.13,6.66,13.9,3.58,17.71a1.74,1.74,0,0,0,.63,2.59c2.55,1.8,4.34,4.64,7.6,5.45,5.51,2.88,11.15.77,16.74.46,1.39.82.43,2.41,1.13,3.46A107.84,107.84,0,0,1,33,49.57c.52,1.28,1,2.55-.75,3.3-2.42-1.61-2.39-4.22-2.55-6.65-.27-4-1.28-7.83-1.84-11.76-.39-2.75-1.41-4-4.21-2.18-3.28,2.18-6.53,1.91-9.76-.21-1.12-.74-2.59-1.63-3,.58-1.3,6.92-2.57,13.86-1.39,21a2.87,2.87,0,0,1,.91,2.56c.29.72-3.52,1.79.2,2.22,1.18.69,1.24,1.81,1.17,3-.27,1.86.66,2.77,2.38,3.14a25.22,25.22,0,0,1,4.8,1.33C19.59,66.23,20.11,66.68,19.92,67.57Z"/><path class="cls-2" d="M32.11,73.36c1.53,9.86,1,19.73-.26,29.55-.25,2-1.54,4.19-3.88,3.67-2.82-.63-1.7-2.87-1.1-4.79,2.19-6.92.41-14.1,1.22-21.12a1,1,0,0,1,1.29.26c1.23,3.82.11,7.76.57,10.84.11-3-.22-6.73.18-10.49C31.12,78.72,29.61,75.57,32.11,73.36Z"/><path class="cls-3" d="M16.91,1.49,15.86.62c5.62-1.92,11.83.69,15.86,7.12A43.67,43.67,0,0,0,37,14.57c.35,1-.28,1.31-1.09,1.45a6,6,0,0,1-4.47-3.63c-2.76-5.4-6.94-8.81-13-9.77A2.23,2.23,0,0,1,16.91,1.49Z"/><path class="cls-4" d="M28.72,80.68h-.63c-1.7-3.25-1.87-7-3.7-10.27-1.09-1.93-2.24-3.05-4.47-2.87L18.6,66.42c3.08-3.71,7.24-1.76,11-2.11a1.75,1.75,0,0,1,.81,2c-2.84,1.87-3.58,4.09-2.11,7.43C29.18,75.79,30.64,78.25,28.72,80.68Z"/><path class="cls-5" d="M30,66.57l-.08-2c-1.33-.84-2.73-1.64-2.22-3.62,1.2-1.55,2.76-1.51,4.44-1,1.49.89,1.7,2.07.8,3.51-1.44,3.22-.45,6.62-.79,9.93-.78,2.71.6,5.65-.92,8.28C28.27,76.83,29.44,71.68,30,66.57Z"/><path class="cls-6" d="M32.9,63.43c-.11-1,.33-2.19-1-2.8a6.21,6.21,0,0,1-1.29-4.91A3.8,3.8,0,0,1,32,52.64c1.06-.79.7-2,.92-3.06C34.24,54.21,34.84,58.83,32.9,63.43Z"/><path class="cls-7" d="M29.73,29.67c-1.2-1-.71-2.35-.89-3.56a9.27,9.27,0,0,1,5-5.89c.74.11,1.26.41,1.1,1.29C33.72,24.57,29.44,25.67,29.73,29.67Z"/><path class="cls-8" d="M34.91,21.51,34,20.62c-.23-2,.75-3.48,2-4.88l1-1.17C39.17,17.77,37.18,19.68,34.91,21.51Z"/><path class="cls-9" d="M32.05,52.65l-.21,2.92c-2.37,1.52-3.15.48-3.42-1.94-.41-3.77-.29-7.58-1-11.33.42,6.47,1.93,12.91.42,19.43.56,1,2.79.91,2,2.88-3.52,2.1-7.62.56-11.27,1.84-2-.22-4-.33-5.92-.7-2.46-.47-3.54-1.75-1.87-4.17,1.72-2.66-1-4.87-.77-7.45.15-1.95-.21-3.95.1-5.83-.81,2,.74,4.5-1.28,6.3C6.64,54.6,7,53,7.18,51.79c1.14-7.5,1-15.18,3.08-22.59a11.36,11.36,0,0,1,4.46,2.06c2.81,2.42,5.48,2.14,8.46-.1,4.12-3.1,4.83-2.7,5.71,2.43C30,39.91,31,46.28,32.05,52.65Z"/><path class="cls-10" d="M36,15.74a5.09,5.09,0,0,1-2,4.88l-5.12,5.49A18,18,0,0,1,11,26.64C4.79,20.71,4.79,13.11,11,4.57c1.48-2,3.78-2.47,6-3.07,6.85-.12,11.73,3.16,14.69,9.11A18.08,18.08,0,0,0,36,15.74Z"/><path class="cls-11" d="M14.11,71.79a107.71,107.71,0,0,0,1.59,29.89,1.47,1.47,0,0,1-2.08-.07l-.06-.07c-2.93-6.24-2.58-13-2.8-19.59a17.51,17.51,0,0,1,.47-9.14C11.84,71,12.18,71,14.11,71.79Z"/><path class="cls-12" d="M10.92,4.57c-3.65,7.36-4.8,14.72,0,22.07-3.84-.65-5.11-5-8.72-6.07-.87-.26-1.35-2-.63-2.57C6.14,14.47,4.92,7,10.92,4.57Z"/><path class="cls-13" d="M14.11,71.79c-2.81.75-2.7,3.25-3.07,5.35a40.16,40.16,0,0,0-.29,4.8c-1.2-3.72-.37-7.57-.72-11.36-.12-1.29-.92-3.38,1.15-3.75a5.13,5.13,0,0,1,4.14,1.11C16.38,69.16,14.93,70.57,14.11,71.79Z"/><path class="cls-14" d="M8.84,54.57c.37-3.52-.27-7.24,2.42-10.4C10,50,12.1,55.76,10.79,61.54c0-1.08.4-2.27-.93-2.92a1.11,1.11,0,0,1,0-1.56C9.84,56.1,10,55.07,8.84,54.57Z"/><path class="cls-15" d="M9.84,57.07v1.56c-.57.78-1.12,2.06-2.25,1.19a2.42,2.42,0,0,1-.4-3.4l.15-.17C8.28,55.27,9.07,56.63,9.84,57.07Z"/><path class="cls-16" d="M13.56,101.57l2.14.14c.43,1.19,1.35,2.28.8,4.05C14.32,105,12.57,104.37,13.56,101.57Z"/><path class="cls-17" d="M30,66.57c1.45,4.93.45,10.06,1.24,15-.43,5.58.89,11.29-.71,16.79H28.72V80.6c-.68-2.87-.8-6-2.16-8.54C24.16,67.72,26.2,66.82,30,66.57Z"/><path class="cls-18" d="M28.32,105.41c-.52-3.12-.16-4.59,1.86-6.27C31.09,101.89,30.15,103.3,28.32,105.41Z"/><path class="cls-19" d="M27.84,61.69l-1.2-22.12c3,4.74,2,8.76,2.45,12.49.23,1.77-.23,3.93,2.75,3.43q0,2.55.1,5.1C30.51,60.67,29,60.23,27.84,61.69Z"/><path class="cls-20" d="M24.52,19.45l-9.26.75c2.85-2.33,6.11-1.68,9.18-2.37Z"/></g></g></g></g></svg>