<svg xmlns="http://www.w3.org/2000/svg" viewBox="0 0 61.3 160.92"><defs><style>.cls-1{fill:#17120d;}.cls-2{fill:#231813;}.cls-3{fill:#191511;}.cls-4{fill:#948d5a;}.cls-5{fill:#cfc75b;}.cls-6{fill:#252318;}.cls-7{fill:#985849;}.cls-8{fill:#2c2a20;}.cls-9{fill:#663f32;}.cls-10{fill:#be7848;}.cls-11{fill:#7f463e;}.cls-12{fill:#393323;}.cls-13{fill:#302e24;}.cls-14{fill:#bfa34f;}.cls-15{fill:#5f5235;}.cls-16{fill:#8d6039;}.cls-17{fill:#786c44;}.cls-18{fill:#4e4028;}.cls-19{fill:#dbca5e;}.cls-20{fill:#fb9c4f;}.cls-21{fill:#e8b053;}.cls-22{fill:#90764f;}.cls-23{fill:#cfaa53;}.cls-24{fill:#b45139;}.cls-25{fill:#f26249;}.cls-26{fill:#493421;}.cls-27{fill:#fbdb62;}.cls-28{fill:#fbc658;}.cls-29{fill:#ad9a60;}.cls-30{fill:#1b160c;}.cls-31{fill:#ab9842;}.cls-32{fill:#ceba50;}.cls-33{fill:#dfce5d;}.cls-34{fill:#f9e360;}.cls-35{fill:#dd714b;}.cls-36{fill:#bca84e;}.cls-37{fill:#f4d458;}.cls-38{fill:#ccb857;}.cls-39{fill:#3a2219;}.cls-40{fill:#efb857;}.cls-41{fill:#f99396;}.cls-42{fill:#f16266;}</style></defs><title>sat</title><g id="레이어_2" data-name="레이어 2"><g id="레이어_1-2" data-name="레이어 1"><g id="레이어_2-2" data-name="레이어 2"><g id="레이어_1-2-2" data-name="레이어 1-2"><path class="cls-1" d="M56.21,13.88c.88,19.9-7.82,35.9-20.35,50.28C31.17,69.55,30,76,29.45,82.78c2.4.35,3.55-2,5.59-2,1.19-.15,1.21.56,1,1.41-2.47,3.52-6.44,5.15-9.77,7.55C19,95,12.54,101.22,5.57,106.82a4.72,4.72,0,0,0-2.16,3.75c.1,7.28-.79,14.59.58,21.84.08,1.88.69,4-2,4.71-1.77-3.49-1.47-7.4-1.65-11a286.33,286.33,0,0,1,.87-40.34c0-.39.5-.74.77-1.12,3.24.69,2.28,3.26,2,5.14a68,68,0,0,0-.63,10.41c0,2.79,1.3,2.08,2.74,1,4.25-3.73,8.18-7.8,12.67-11.25a18.74,18.74,0,0,1,2.79-2.09c4.41-2.55,5.94-6.43,5.38-11.32.74-3.93,2.35-7.61,3.17-11.53.67-3.21,3.5-4.7,5.91-6.44a4.7,4.7,0,0,0,2.23-3.11,16.46,16.46,0,0,1,3.39-5,12.69,12.69,0,0,0,2-1.88c5-10.2,9.43-20.57,9.79-32.17a5.39,5.39,0,0,1,0-1.48,1.6,1.6,0,0,1,2.79-1Z"/><path class="cls-2" d="M44.13,49.62A2.06,2.06,0,0,1,42,50.87c-1.48-4.24-1.18-8.79-2.36-13.1-1.34-4.88-4-8.32-9.1-9.48-2.89,0-5.78-.35-8.64.33-2.79.91-4.59,3-6.26,5.24a18.41,18.41,0,0,0-2.44,7.35c-.43,2.89-1.9,4.79-5.07,4.88a2,2,0,0,1-.68-1.33,59.6,59.6,0,0,0,1.76-8.24c.64-5.07.84-10.19,2.33-15.13.48-1.59.73-3.23,2-4.41.92-.4,1.58-.38,1.42.91A58.93,58.93,0,0,0,13,31.58c2.93-2.51,5.17-4.85,8.58-6C30.28,22.78,37,25,41.36,33.08c.75,1.39.88,3.3,3.13,3s2.07-2.21,2.6-3.65c1-2.75,2.33-5.46,2.86-8.3,1.37-7.33,1.23-7.36-4-13,7.57,1.13,4.15-4.95,5.64-8.07,2.1.84,1.17,2.65,1.64,3.86.71.58,1.49,1.14,1,2.26-1.87,1.85-2.32,3.73-.15,5.69v1A85.2,85.2,0,0,1,46,43C44.88,45.12,45.23,47.56,44.13,49.62Z"/><path class="cls-3" d="M38,112.84c1.94,1.06,1.94,2.73-.1,2.86-3.49.23-6.89,2.38-10.92.59,4.74-6.68,9.38-13.22,14-19.77A17.24,17.24,0,0,0,42.56,94c.77-1.63,1.82-3.34.31-5.06s-3.79-1.44-5.56-.76a83.56,83.56,0,0,0-21.69,12.47c-5.32,4.2-7.55,9.22-7.94,16.12-.49,8.69.18,17.29.23,25.92-2.63,1.29-2.81-.89-3-2.38a83.44,83.44,0,0,1,.87-31.42c2-6.53,8-9.45,12.65-13.5a50.82,50.82,0,0,1,18.08-9.91,8.46,8.46,0,0,1,1-.29c3.07-.7,6.58-1.87,8.82.92s1,6.29-.69,9.29c-3.53,5.42-8.28,10-11.38,15.71-.58,1-.49,2.28-1.69,3.2C34.46,113.69,36.29,113.48,38,112.84Z"/><path class="cls-4" d="M7,101.84,2.23,105.9a66.18,66.18,0,0,1,.33-15.27c.2-2,1.58-4.16-.6-5.92l.17-2.81C4.26,75,5.49,67.81,6.9,60.7a6,6,0,0,1,.9-2.77c5.15.15,3.85,3.66,3.49,6.69a102,102,0,0,0-3.8,29.84C7.51,96.93,7.69,99.41,7,101.84Z"/><path class="cls-5" d="M7.21,107.93a89.93,89.93,0,0,0-1.15,30.91c.2,1.35-.75,3.57,1.86,3.88l.08,1c-1.26,4.2,2.79,7.3,2.35,11.34-2.36,2.21-2.85.1-3.71-1.52-2.49-4.67-2.65-10-4.5-14.88l-.07-1.59c2.09-1.42.52-3.44.83-5.15-.72-6.55-.25-13.11-.26-19.67,0-2.15.62-4.28,2.94-5.26C6.41,106.67,7.2,106.68,7.21,107.93Z"/><path class="cls-6" d="M8,57.84c-.36,8.09-3.23,15.7-4.59,23.61,0,.22-.85.3-1.3.45-.54-2,.4-3.86.88-5.74,2.38-9.23,2.6-18.62,2-28A63.23,63.23,0,0,1,10.35,19c1,0,1.31.63,1.56,1.4-.27,4.05-2.06,7.75-2.74,11.71a18.21,18.21,0,0,0-.78,5.82c.39,2.74-1.64,5.2-.88,8a5.78,5.78,0,0,1,.56,3.57C7.57,52.21,9.16,55,8,57.84Z"/><path class="cls-7" d="M44,95.84c1.3-3,3.93-6.33,1.43-9.16s-6.2-.29-9.38,0c-.72-1.47-.75-2.81.73-3.87a13.56,13.56,0,0,1,4.7-1.61c6-1.27,8.82.88,9.82,7.28a1.42,1.42,0,0,1-.21,1.45c-3.26,5.33-6,11-11,15.08-1.49-1.67.25-2.6.86-3.78C42,99.41,44,98.22,44,95.84Z"/><path class="cls-8" d="M2.14,138.68c3.27,2.13,1.38,6.06,3.08,8.83a27.74,27.74,0,0,1,2.64,7c.53,1.88,1.46.49,2.23.51a3.42,3.42,0,0,1,.87,1c2.15,2.69,3,.25,4.19-1q.44-.49.92-.95c1.06-.2,2.25-.2,1.93,1.25a7.42,7.42,0,0,1-4.72,5.33c-2.58,1-4.39-.91-5.58-3A40,40,0,0,1,2.14,138.68Z"/><path class="cls-9" d="M51.1,90l-.23-1.29c-.55-1,0-1.92.18-2.86,1-5.8-1.31-7.83-7.14-6.27-2.52.68-4.6,2.63-7.38,2.59L36,81.69,35,80.76c2.56-2.14,5.89-2.62,8.79-4,3.25-1.59,6.84-1.5,9.23,1.11,2.08,2.27,1.33,5.51.19,8.36C52.71,87.56,52.59,89.14,51.1,90Z"/><path class="cls-10" d="M44,95.84c2.12,1.89-.6,2.63-1,3.92-.55,2-3.16,2.84-3,5.27-1.5,1.8-1.48,4.58-3.79,5.85-2.06,2-2.6,1.95-3.4-.15Z"/><path class="cls-11" d="M54,8.78l-.85-1.87c3.23,0,1.37-4.59,4.53-4.86,1,1.71-2.73,4.2,1.78,6,3.37,1.38,1.84,4.59-3.3,5.82L55,13.68C55.64,11.86,54.22,10.43,54,8.78Z"/><path class="cls-12" d="M11.1,19.93l-.78-1c1.22-4.5,4.09-8.37,4.92-13a1,1,0,0,1,1.12-.15,13.1,13.1,0,0,1,3.08,3,1.18,1.18,0,0,1-.31,1.13l-4.07,8-.81-1c-1-1.7.51-3,.67-4.29C13.13,14.62,14.48,18.48,11.1,19.93Z"/><path class="cls-13" d="M10.12,156v-1a65.8,65.8,0,0,1-2.58-6.9c-.36-1.37-1.7-3.15.49-4.35.71,2.15,1.34,4.34,2.16,6.45,1,2.65,3.21,3.65,5.9,3.77L16,155A6.39,6.39,0,0,1,10.12,156Z"/><path class="cls-14" d="M19,1.68c4.46-2,4.46-2,4.72.9C23.46,4,26.85,4,25.05,6l.09-.08c-1,.54-1.88,1.51-3.21,1.38A4.67,4.67,0,0,1,18.42,3,2.87,2.87,0,0,1,19,1.68Z"/><path class="cls-15" d="M21.85,6.58l3.28-.71c-.06.15-.19.3-.19.44.1,5,.1,5-5.82,3.65l0-1.18C20.25,8.37,20.73,7.08,21.85,6.58Z"/><path class="cls-16" d="M32.91,110.73c1,2,2.26.11,3.4.15-.32,1.43,1.62.88,1.71,2-1.63,3.79-5,1.41-7.76,2.21C32,114,32.07,112.15,32.91,110.73Z"/><path class="cls-17" d="M19,1.68l.08,1.45A6.28,6.28,0,0,1,15.88,6l-.65-.06a7.33,7.33,0,0,1-.94-1.74C14,3,12.29,1.82,13.44.57c1.51-1.7,2,.93,3.14,1.06C17.38,1.71,18.2,1.67,19,1.68Z"/><path class="cls-18" d="M25.05,6c.18-1.4-.09-2.26-1.82-1.73-.62.19-1.74,1.16-1.88-.16s1.11-1.74,2.39-1.47c1,.6,2.57-.42,3.07.81S25.91,5.27,25.05,6Z"/><path class="cls-19" d="M7,101.84c-2.09-2.69-.83-5.76-.84-8.62,0-9.95.71-19.83,4-29.34.82-.84,1.66-1.66,3-1.5,1.59,1.66,3.93,1.87,5.81,3,2,2.9,1.14,5.93.39,9a47.29,47.29,0,0,0-1.08,5.77c-1.54,3.71.34,7.19.79,10.76Z"/><path class="cls-20" d="M31,27c5,.92,8.11,4.17,9.46,8.85,1.41,4.86,2.67,9.82,1.54,15l-3.17,4.72a3.66,3.66,0,0,1-4.39,2c-3-1.19-5.77-2.54-3.81-6.6.49-1.61,1.9-2.7,2.43-4.26C34.27,43.29,34.57,40,31,37.61,29.26,34.06,28.84,30.54,31,27Z"/><path class="cls-21" d="M17.07,80.87a15.24,15.24,0,0,1,1.09-7.29,12.57,12.57,0,0,0-.11-8.68c2.9-2.21,6.51-1.81,9.77-2.64a8,8,0,0,0,3.24-2.2c.7-.87,1.22-1.91,2.32-2.38,1.32.26,2.84-.09,3.85,1.19-7.38,3.81-6.55,11.87-9.35,18.06-.81,1.49.13,3.24-.91,5.1C24,79.5,20.46,80.78,17.07,80.87Z"/><path class="cls-22" d="M36.11,83.78a2.57,2.57,0,0,1,0,2.88c-9.13,3.89-17.6,8.79-24.76,15.8a17.66,17.66,0,0,0-4.1,5.43c-4.23.09-4,3.5-4.14,6.12-.28,6-.14,11.93-.16,17.9-1.66-7.38-.45-14.87-.81-22.3-.08-1.7,1.42-2.57,2.52-3.52,10-8.74,19.89-17.62,31.38-24.44l.07.38a1.13,1.13,0,0,1,.16,1.59Z"/><path class="cls-23" d="M17.07,80.87c3.15-2.15,6.28-3.36,9.72-.2.82-.83-.38-2.76,1.1-3.75,1.6,7.54-3.18,11-8.86,13.89C16.54,87.86,15.31,84.66,17.07,80.87Z"/><path class="cls-24" d="M44.13,49.62A22,22,0,0,1,46.4,38.55a53.88,53.88,0,0,0,5.77-19.44,3.8,3.8,0,0,1,1.89-3.33c1.88,4.69-.46,9-1.39,13.39C51.11,36.48,47.8,43.16,44.13,49.62Z"/><path class="cls-25" d="M54,8.78c1.68,1.38,4.64,2.5,1,4.93l-1,1.15a2.62,2.62,0,0,1-3.43-2C50.46,10.85,52.26,9.62,54,8.78Z"/><path class="cls-26" d="M37.24,58.86c-1.38-.49-3.35,1.41-4.26-1v-.7a.72.72,0,0,1,1-.29l.14.1,4.78-1.36C38.82,56.93,39.46,58.61,37.24,58.86Z"/><path class="cls-27" d="M15,32.83c1.49-2.29,3-4.51,6-5,1.6,1.49,1.68,1.49,1.48,4-.24,2.89-.26,5.69,1.85,8-4.19,4.78-4.94,9,2.2,14.47-.11,3.56-2.63,3.72-5.25,3.76-2.83-.33-4.67-2.09-6.2-4.31C11.05,46.78,13.29,39.78,15,32.83Z"/><path class="cls-28" d="M24.06,39.87c-1.69-1.25-5.37-.91-3-5.18.66-1.19,1.47-4.58-.07-6.84,3.2-2,6.68-.59,10-.81.43,3.57-.92,7.31,1,10.73C30,40.9,27.41,41.78,24.06,39.87Z"/><path class="cls-29" d="M15,32.83c.18,7-2.63,14.14,1.15,20.94-6.19-1-8.45-3.14-7.93-7.63,2.84-1.9,4.6-4.2,4.38-8A7.14,7.14,0,0,1,15,32.83Z"/><path class="cls-30" d="M8.2,46.14c-.51,2.46,1,3.56,2.9,4.54a50.56,50.56,0,0,1,5,3.09c1.35,1.47,2.7,2.93,4.86,3.15,3.92,1.57,8.2-1.21,12.06,1l-.08-.09c2.22,1.82-.36,2.11-1,3-3.58,1.28-7.32,0-10.94.7-5.06-3.46-10.32-6.68-14-11.77l-.1-4.14c-.11-.79.31-1,1-1Z"/><path class="cls-31" d="M11.1,19.93c2.27-3.2,2.32-7.52,5.64-10.9.06,3.31-2.16,5.32-2.48,7.88-2.42,6.46-2.85,13.31-4,20l-.55-.32c-1.08-1.39-.55-3.32-1.61-4.72Z"/><path class="cls-32" d="M8,44.64l-1,1c-1.42-2.63,0-5.19.17-7.78.7-.78,1.46-1.4,2.61-1a1.37,1.37,0,0,0,.51.07C10,39.63,10.27,42.52,8,44.64Z"/><path class="cls-33" d="M7.06,49.78l14,11.09a1,1,0,0,1,0,1.24,3.56,3.56,0,0,1-4.1.1c-1.57-.93-2.75-.35-3.93.66l-3,1c.65-2.47,1.16-4.9-2.09-6A12.25,12.25,0,0,1,7.06,49.78Z"/><path class="cls-34" d="M9.75,36.86l-2.61,1c0-2-.5-4.15,1-6C11.77,32.51,9.39,35.14,9.75,36.86Z"/><path class="cls-35" d="M36.11,83.78V82c3.14-1.87,6.17-4,10-4.22,6.46-.43,8.4,2.18,6,8.06-.38.92-.78,1.84-1.17,2.76C48,81.08,47.42,80.88,36.11,83.78Z"/><path class="cls-36" d="M10.12,156c1.81-1.23,3.85-1.07,5.88-1-.17,2.57-1.8,3.74-4.13,3.78C10.2,158.78,9.81,157.5,10.12,156Z"/><path class="cls-37" d="M15.88,6c0-2.14,1.77-2.31,3.21-2.84l2.76,3.45c-.52,1.25-.77,2.83-2.77,2.23C17.89,8,15.88,8.12,15.88,6Z"/><path class="cls-38" d="M13.07,62.87c.57-2.49,1.1-4.83,4.09-1.66,1.1,1.16,2.78.55,4.22.59,2.69-.41,5.39-.85,7.64,1.31A39.67,39.67,0,0,1,18,64.9C15.59,66.19,13.43,66.78,13.07,62.87Z"/><path class="cls-39" d="M24.06,39.87c2.86,0,5.43-1,8-2.1,2.2-.4,3.19.43,3.36,2.75A13.33,13.33,0,0,1,31,51.78c-1.08,2-2.62,2.87-4.88,2-4.4.41-5.3-2.94-6.21-6C18.7,43.89,20.09,41.13,24.06,39.87Z"/><path class="cls-40" d="M26.06,53.78l4.9-2c-1.29,3.15,2.57,3.13,3.14,5.13l-1,1c-4.12.8-8.17.89-12.07-1C23.23,56.78,25.87,57.26,26.06,53.78Z"/><path class="cls-26" d="M29,63.11c-2.59-.17-5.33.53-7.64-1.31a8.76,8.76,0,0,1-.32-.93c3.65-1.89,7.3-.35,11,0Z"/><path class="cls-41" d="M33.07,45c-.08,3.74-2.39,5.72-5.68,6.32-2.53.46-4.94-.28-5.55-3.42-.27-1.88-1.1-4,1.7-4.74C27,42.26,30.56,40.94,33.07,45Z"/><path class="cls-42" d="M33.07,45c-2.5-.29-4.37-2.54-7.42-1.64-2.64.78-4,1.8-3.81,4.54-1.62-3.39-.43-5.32,3.12-6.07,1.46-.31,2.89-.73,4.32-1.13C34.26,39.32,34.46,39.54,33.07,45Z"/></g></g></g></g></svg>