<svg xmlns="http://www.w3.org/2000/svg" viewBox="0 0 37.64 111.54"><defs><style>.cls-1{fill:#181c21;}.cls-2{fill:#14171f;}.cls-3{fill:#6da4c7;}.cls-4{fill:#191d21;}.cls-5{fill:#353f47;}.cls-6{fill:#2b2b32;}.cls-7{fill:#222b30;}.cls-8{fill:#12151c;}.cls-9{fill:#76a6d1;}.cls-10{fill:#6e94c7;}.cls-11{fill:#6781ca;}.cls-12{fill:#2c3f4d;}.cls-13{fill:#6499c1;}.cls-14{fill:#6d96c8;}.cls-15{fill:#89c2fd;}.cls-16{fill:#758fef;}.cls-17{fill:#6378bc;}.cls-18{fill:#353c5b;}.cls-19{fill:#7ba8db;}.cls-20{fill:#2c3c4a;}</style></defs><title>tue</title><g id="레이어_2" data-name="레이어 2"><g id="레이어_1-2" data-name="레이어 1"><g id="레이어_2-2" data-name="레이어 2"><g id="레이어_1-2-2" data-name="레이어 1-2"><path class="cls-1" d="M33.51,46.44c.17,6.93-.58,13.9-.42,20.72C33.28,75,34.6,82.89,35,90.81c.28,5.11,1.26,10.21-.3,15.3a10.43,10.43,0,0,1-2.84,4.58,3.36,3.36,0,0,1-3.71.52,2.26,2.26,0,0,1-1.38-2.88c2-7.32,1.14-14.63,0-21.95,2.59-.09,2.73,2,3.16,3.7.84,3.33.92,6.79,1.71,10.14C33.19,92.07,31.6,84,31,76a2.07,2.07,0,0,0-2.79-2c-1.59.44-1.26,1.74-1,2.88a24.48,24.48,0,0,1,1,4.88c.09,1.5.94,3.49-1.67,3.9-1-3.4-2-6.82-3.06-10.2-.46-1.44-1.35-2.84-3-2.83-1.44,0-2.1,1.42-2.84,2.5-1.5,2.19-1.42,4.79-1.48,7.19-.19,8-1.07,16.22,3.84,23.42.84,1.23,1.06,2.58-.09,3.61a3.81,3.81,0,0,1-5.34.14c.47-.74,1.3-1,1.87-1.62-.73-1.83-1.61.44-2.37-.1-1.25-.72-1.16-1.87-1-3.06a5.18,5.18,0,0,1,.77-1.28c1.29-1.91.14-3.8,0-5.7-.68-7.52-1.46-15,.7-22.46-.27-.58,2-1.51-.24-1.8a11.91,11.91,0,0,1-4.2-1.23,2.5,2.5,0,0,1-.9-1.14,2.13,2.13,0,0,1,.63-2c4.89-.77,9.77.48,14.68.09,4.7-.36,4.9-.55,2.73-4.81a5,5,0,0,1-.33-4.26c.6-2.22,4.22,0,4.31-3s-.31-6.16.47-9.19C32.09,47,32.52,46.39,33.51,46.44Z"/><path class="cls-2" d="M9.9,69.06,9.7,71.4c1.34,2.51,2.66,5-.82,7q-.1-4.25-.22-8.49c0-1,.32-2.42-.2-2.92C1.61,60.46,5.6,52.22,5,44.79c-.3-4,1.07-8.17,1.58-12.27C7,29.71,7.47,27.2,3.42,26,.51,25.11-1.1,22.65.87,18.83s1.41-9,4.79-12.48a2.7,2.7,0,0,1,1,1.89c-1.18,4.08-.85,8.45-2.41,12.46-.44,1.12-.24,2,.84,2.46,2.48,1.06,3.76,3.74,6.37,4.61,3.79,1.87,7.69,1.52,11.63.69,1.77-.37,3.49-1.06,5.36-.73.79.28,1.42.69,1.25,1.68l1,5c.65,1,.57,1.8-.62,2.29-2.82-4.43-7-3.45-11.13-2.83-1.75-1.22-3.71-.52-5.58-.58C8,32.37,9.24,36.37,8.9,39.21,7.83,43.9,8.26,48.7,7.66,53.29c.48-2.46.29-5.14,1.23-7.62.67-1.76,3.26-2.15,3.09-.55-.74,7.28,3.6,14.58-.13,21.75A7.61,7.61,0,0,1,9.9,69.06Z"/><path class="cls-3" d="M26.67,85.6c2.34-2.93-.6-5.5-.65-8.29,0-1.38-.93-2.75-1.45-4.15,7.62-1.93,7.7-1.94,8.14,5.33s.73,14.3,1,21.46c0,1.33.64,3.3-1.68,3.47-2.63.19-2.16-1.81-2.26-3.45-.3-4.67.22-9.53-2.94-13.58A.73.73,0,0,1,26.67,85.6Z"/><path class="cls-4" d="M5.7,8.39V6.33C9.53-.41,16.07-.72,22.22.67,28.92,2.19,32.94,7.5,35.16,14c.58,1.7,1.2,3.39,1.8,5.08.36.87,0,1.36-.84,1.65C33,20.27,32.53,17.95,32,15.35A14.86,14.86,0,0,0,14.64,3.49l-.39.08C10.6,3.84,9.11,7.81,5.7,8.39Z"/><path class="cls-5" d="M35.87,20.38l1-1.31c2,3.31-.27,5.15-2.49,6.92-1.52,1.21-3.16,2.26-4.74,3.39l-1.1-1C28.9,23.76,33.83,23.39,35.87,20.38Z"/><path class="cls-6" d="M12.6,106.55c-2.81-3.63-1.47-8.21-2.79-12.18.83-.93-.27-2.6,1.26-3.26a1.42,1.42,0,0,1,1.24.78,66.36,66.36,0,0,1,1.45,12.32l-.13.37C12.93,105,13.43,106.13,12.6,106.55Z"/><path class="cls-7" d="M29.93,36.39l.79-2c2.16,3.74,1.83,8.06,2.8,12.07l-1,1.22C28.86,44.56,28.84,40.6,29.93,36.39Z"/><path class="cls-6" d="M8.88,78.37c1.58-2.17.43-4.66.82-7a8.76,8.76,0,0,1,.89,0c2.36,2.71,1.38,5.85,1.18,8.9-1.5,3,.54,6.81-2.26,9.48C8.6,86,8.86,82.18,8.88,78.37Z"/><path class="cls-2" d="M9.5,89.77c.94-3-.68-6.38,1-9.34,2.4,3.53,2,7.14.3,10.79-.29,1.07.07,2.34-1,3.16Z"/><path class="cls-8" d="M12.6,106.55c.1-.79.09-1.63,1-2,.09,1.07-.13,2.3,1.34,2.69,1.48-.66,2.31-.07,2.69,1.39-.83.93-2,.71-3,.78A3,3,0,0,1,12.6,106.55Z"/><path class="cls-9" d="M29.93,36.39c.88,3.76,1,7.7,2.63,11.27q0,5.23-.05,10.47c-3.11,1.35-3.61-.83-3.73-3A57.94,57.94,0,0,0,28,47.89c-.13-.66-.68.42-.12.05.88-.57.83,8.58-.05,11.51.12,2-1.5,4.7,2.38,5.32,1.3.21,1.24,2.25,1,3.49C31,69.89,29.33,70,28.1,70.14A47.92,47.92,0,0,1,9.85,69c5.18-7.86-1.23-16.3,1.34-24.34-2.72,4.42-2,9.48-3.14,14.26-2.26-6.84-1.46-13.66-.24-20.49C9.43,36,12,34.91,14.55,33.74a6.89,6.89,0,0,1,4.11-.25c1.21-.46,2.43-.88,3.62-1.37C26.6,30.38,29.17,31.79,29.93,36.39Z"/><path class="cls-10" d="M13.79,104.21c-2.32-3.86-2.07-8.18-2.22-12.43-1.09-4.79.12-9.54.34-14.3.1-2.14,1.06-4.46,4.2-3-2.74,8.84-1.95,17.76,0,26.55C16.65,103.77,16.27,104.39,13.79,104.21Z"/><path class="cls-11" d="M16.11,74.52c-2.75,0-3.16,2-3.37,4-.46,4.41-.79,8.83-1.17,13.25q-.35-.29-.73-.55l-.3-10.79v-9c1.73.26,3.48.46,5.2.8C18,72.62,16.68,73.65,16.11,74.52Z"/><path class="cls-12" d="M27.86,59.47,27,43l1.23-.11c.42,4,1,7.9,1.22,11.86.13,2.13.54,3.6,3,3.41C32.13,62.61,29.38,58.92,27.86,59.47Z"/><path class="cls-13" d="M28.87,110.48c0-2.57-.62-4.93,2.18-6.08.76-.32,2.2-.24,2.19.4C33.2,107.44,31.86,109.32,28.87,110.48Z"/><path class="cls-14" d="M17.69,108.65,15,107.26c-.62-2.28,1.17-2.27,2.23-1.82C18.6,106,19.95,107.24,17.69,108.65Z"/><path class="cls-15" d="M35.87,20.38c.26,2.33-.89,3.5-3.06,4.16-1.92.58-2.88,2.46-4.22,3.81-6,1.69-11.92,3.81-18,.24-5.91-7.67-4.5-19.48,3.09-26,7.62-4,18.9,4.49,19.64,12.94C33.6,18,34.89,18.87,35.87,20.38Z"/><path class="cls-16" d="M13.73,2.61c-6.24,8-6.43,16.79-3.09,26C7.33,28,6.53,23.46,2.73,23.42c-.3,0-1-1.87-.82-2,4-3.55,1-9.1,3.78-13C8,6,10,3.06,13.73,2.61Z"/><path class="cls-17" d="M14.75,34.09c-1.87,2.14-4.36,3.3-6.9,4.39V35.59c.16-4.3,2-5.46,5.76-3.1A1.56,1.56,0,0,1,14.75,34.09Z"/><path class="cls-18" d="M14.75,34.09,13.6,32.5c1.66.55,4.18-3.26,5.09,1C17.6,35.07,16.14,34.4,14.75,34.09Z"/><path class="cls-19" d="M10.27,62.09c-.15,1.37-.83,1.53-1.75,1.27s-1.87-.76-1.74-2c.12-1,.92-1.28,1.79-1.19C9.85,60.32,9.83,61.49,10.27,62.09Z"/><path class="cls-20" d="M22.09,25.63l-7,.56A5.32,5.32,0,0,1,22.09,25.63Z"/></g></g></g></g></svg>