<?xml version="1.0" encoding="utf-8"?>
<!-- Generator: Adobe Illustrator 18.0.0, SVG Export Plug-In . SVG Version: 6.00 Build 0)  -->
<!DOCTYPE svg PUBLIC "-//W3C//DTD SVG 1.1//EN" "http://www.w3.org/Graphics/SVG/1.1/DTD/svg11.dtd">
<svg version="1.1" id="Layer_1" xmlns="http://www.w3.org/2000/svg" xmlns:xlink="http://www.w3.org/1999/xlink" x="0px" y="0px"
	 width="24px" height="24px" viewBox="0 0 24 24" style="enable-background:new 0 0 24 24;" xml:space="preserve">
<style type="text/css">
	.st0{fill:#1E232D;}
</style>
<path class="st0" d="M16.2,14.8C18.5,13.4,20,10.9,20,8c0-4.4-3.6-8-8-8S4,3.6,4,8c0,2.9,1.5,5.4,3.8,6.8c-4,1.5-7,5-7.8,9.2h2
	c1-4.6,5.1-8,10-8s9,3.4,10,8h2C23.2,19.7,20.2,16.2,16.2,14.8z M6,8c0-3.3,2.7-6,6-6s6,2.7,6,6s-2.7,6-6,6S6,11.3,6,8z"/>
</svg>
