<?xml version="1.0" encoding="utf-8"?>
<!-- Generator: Adobe Illustrator 21.0.0, SVG Export Plug-In . SVG Version: 6.00 Build 0)  -->
<svg version="1.1" id="Capa_1" xmlns="http://www.w3.org/2000/svg" xmlns:xlink="http://www.w3.org/1999/xlink" x="0px" y="0px"
	 viewBox="0 0 191.3 191.3" style="enable-background:new 0 0 191.3 191.3;" xml:space="preserve">
<path d="M124.6,162.9c1.8-2.8,0.9-6.5-1.9-8.3s-6.5-0.9-8.3,1.9c-4.1,6.5-11.1,10.4-18.8,10.4s-14.8-3.9-18.8-10.4L15.4,58.2
	c-4.3-6.9-4.5-15.4-0.6-22.5c4-7.2,11.2-11.4,19.4-11.4H157c8.2,0,15.4,4.3,19.4,11.4c4,7.2,3.8,15.6-0.6,22.5l-35.7,57.3
	c-1.8,2.8-0.9,6.5,1.9,8.3c2.8,1.8,6.5,0.9,8.3-1.9L186,64.5c6.7-10.7,7-23.7,0.9-34.7c-6.1-11-17.3-17.6-29.9-17.6H34.3
	c-12.6,0-23.8,6.6-29.9,17.6C1.5,35.1,0,40.8,0,46.4c0,6.2,1.8,12.5,5.2,18.1l61.4,98.4c6.3,10.1,17.1,16.1,29,16.1
	S118.4,173,124.6,162.9z"/>
</svg>
