<?xml version="1.0" encoding="iso-8859-1"?>
<!-- Generator: Adobe Illustrator 18.0.0, SVG Export Plug-In . SVG Version: 6.00 Build 0)  -->
<!DOCTYPE svg PUBLIC "-//W3C//DTD SVG 1.1//EN" "http://www.w3.org/Graphics/SVG/1.1/DTD/svg11.dtd">
<svg xmlns="http://www.w3.org/2000/svg" xmlns:xlink="http://www.w3.org/1999/xlink" version="1.1" id="Capa_1" x="0px" y="0px" viewBox="0 0 68.127 68.127" style="enable-background:new 0 0 68.127 68.127;" xml:space="preserve" width="512px" height="512px">
<g>
	<path d="M57.699,20.324c-0.929-10.302-8.864-18.3-18.95-19.978c-9.877-1.643-20.624,2.621-25.784,11.41   c-2.505,4.266-3.111,9.049-2.217,13.883c0.709,3.832,1.675,9.989,5.782,11.639c0.349,0.14,0.624-0.118,0.704-0.425   c0.161,0.26,0.597,0.349,0.846,0.024c2.418-3.16,4.773-6.392,6.94-9.731c0.163-0.251,0.162-0.489,0.077-0.691   c0.018-0.06,0.032-0.124,0.028-0.198c-0.196-3.821,1.073-7.556,4.713-9.358c3.569-1.767,8.371-0.403,10.469,3.007   c2.01,3.266,1.431,7.9-1.261,10.603c-2.953,2.965-6.388,2.629-10.155,2.539c-0.737-0.018-1.058,1-0.483,1.416   c0.218,5.831,0.176,12.229,1.22,17.939c0.046,0.253,0.227,0.41,0.442,0.476c0.016,0.352,0.246,0.676,0.715,0.653   c3.063-0.148,6.151-0.244,9.191-0.674c0.006-0.001,0.009-0.004,0.015-0.005c0.008,0.024,0.013,0.049,0.021,0.073   c0.368,1.108,1.87,0.636,1.709-0.471c-0.444-3.039-0.646-5.848-0.304-8.885C51.004,40.854,58.588,30.185,57.699,20.324z    M40.025,41.977c-0.321,0.085-0.514,0.277-0.607,0.505c-1.954-0.018-3.954,0.202-5.888,0.339c-0.185,0.013-0.189,0.294,0,0.291   c1.916-0.037,3.902-0.003,5.827-0.186c0.025,0.238,0.131,0.473,0.303,0.645c-0.083,0.405-0.15,0.817-0.209,1.231   c-1.397-0.346-3.159-0.009-4.47,0.488c-0.132,0.05-0.082,0.241,0.059,0.212c0.787-0.162,1.566-0.316,2.371-0.363   c0.666-0.039,1.333,0.034,1.995,0.001c-0.097,0.761-0.139,1.533-0.151,2.305c-2.141-0.29-4.322-0.308-6.473-0.136   c-0.216,0.017-0.223,0.349,0,0.342c2.177-0.067,4.307,0.076,6.466,0.307c0.005,0.499,0.037,0.996,0.081,1.491   c-0.02-0.006-0.032-0.022-0.055-0.022c-1.91,0.048-3.892,0.366-5.781,0.655c-0.165,0.025-0.126,0.298,0.039,0.29   c1.91-0.095,3.916-0.186,5.799-0.522c0.016-0.003,0.02-0.017,0.033-0.022c0.057,0.519,0.131,1.035,0.238,1.542   c-2.848,0.025-5.697,0.348-8.53,0.627c0.985-5.371-0.033-11.849-1.678-17.079c3.977,1.432,9.109-0.625,11.625-3.812   c2.885-3.655,3.116-9.281,0.199-12.989c-6.173-7.848-19.806-1.918-17.368,7.937c-0.097,0.06-0.187,0.142-0.264,0.253   c-2.258,3.26-4.347,6.654-6.345,10.078c-0.016,0.027-0.017,0.052-0.028,0.078c-0.043-0.106-0.111-0.202-0.229-0.266   c-3.684-1.978-4.817-10.689-4.882-14.377c-0.081-4.616,1.692-8.905,4.735-12.334c5.809-6.543,15.178-9.092,23.582-6.925   c2.106,0.543,4.073,1.398,5.854,2.504c-5.46-0.345-10.961-0.469-16.427-0.352c-0.921,0.02-3.177-0.307-2.617,1.231   c0.016,0.043,0.075,0.026,0.068-0.019c-0.126-0.756,18.325-0.22,19.981-0.184c1.226,0.865,2.349,1.857,3.352,2.956   C41.217,8.108,31.696,8.049,22.287,8.7c-0.217,0.015-0.222,0.347,0,0.342c9.604-0.205,19.142-0.221,28.743,0.134   c0.004,0,0.005-0.003,0.009-0.003c0.531,0.619,1.012,1.278,1.465,1.957c-7.622-0.959-15.592-0.731-23.214,0.077   c-0.153,0.016-0.16,0.251,0,0.244c7.85-0.374,15.575-0.163,23.419-0.016c0.47,0.731,0.891,1.495,1.264,2.285   c-5.295-0.19-10.652-0.103-15.943,0.085c-0.202,0.007-0.202,0.307,0,0.314c5.361,0.19,10.791,0.279,16.155,0.079   c0.351,0.795,0.636,1.623,0.884,2.467c-3.853,0.46-7.664,0.624-11.549,0.509c-0.229-0.007-0.222,0.331,0,0.351   c3.9,0.358,7.834,0.235,11.711-0.308c0.147,0.561,0.267,1.133,0.367,1.712c-2.355,0.05-4.716,0.236-7.073,0.284   c-0.21,0.004-0.207,0.311,0,0.323c2.34,0.146,4.8,0.191,7.147-0.1c0.076,0.521,0.146,1.044,0.179,1.579   c0.024,0.396,0.014,0.792,0.008,1.188c-3.851-0.16-7.856,0.428-11.622,1.118c-0.203,0.037-0.159,0.391,0.049,0.364   c3.857-0.506,7.717-0.627,11.577-0.982c-0.034,0.779-0.141,1.555-0.281,2.326c-3.135-0.308-6.553,0.148-9.605,0.701   c-0.17,0.031-0.133,0.319,0.041,0.304c3.143-0.275,6.337-0.238,9.472-0.517c-0.291,1.385-0.747,2.746-1.338,4.059   c-3.696-0.251-7.426-0.202-11.122,0.016c-0.188,0.011-0.192,0.296,0,0.295c3.627-0.012,7.238,0.109,10.861,0.232   c-0.49,1.011-1.064,1.989-1.705,2.924c-0.036-0.038-0.087-0.065-0.157-0.066c-2.924-0.052-5.824-0.023-8.748-0.195   c-0.218-0.013-0.207,0.308,0,0.333c2.828,0.342,5.783,0.537,8.63,0.317c-1.605,2.243-3.623,4.202-5.876,5.734   c-0.004,0-0.005-0.004-0.009-0.004c-3.5,0.219-6.994,0.288-10.499,0.313c-0.167,0.001-0.165,0.25,0,0.258   c3.25,0.156,6.506,0.103,9.755-0.066C43.625,40.694,41.856,41.492,40.025,41.977z" fill="#FFFFFF"/>
	<path d="M41.785,57.552c-0.093-0.224-0.259-0.364-0.443-0.438c0.038-0.244-0.051-0.508-0.29-0.638   c-2.803-1.521-7.151-0.744-10.222-0.14c-0.294-0.283-0.875-0.161-0.915,0.372c-0.273,3.626,0.026,7.235,0.982,10.747   c0.155,0.569,0.664,0.737,1.104,0.623c0.086,0.027,0.176,0.051,0.285,0.049c3.253-0.056,7.028,0.065,10.182-0.771   c0.118-0.031,0.209-0.082,0.285-0.142c0.205-0.055,0.375-0.212,0.353-0.471C42.865,63.896,42.887,60.202,41.785,57.552z    M32.568,66.449c-0.69-2.868-1.197-5.742-1.468-8.676c1.671-0.148,3.353-0.234,5.03-0.192c1.408,0.035,2.861,0.326,4.253,0.134   c-0.001,0.011-0.006,0.018-0.007,0.029c-0.042,0.644-0.016,1.314,0.058,1.996c-2.178-0.195-4.515,0.064-6.652,0.322   c-0.222,0.027-0.233,0.372,0,0.356c2.223-0.149,4.492-0.079,6.71-0.262c0.072,0.534,0.173,1.074,0.287,1.615   c-1.841,0.107-3.635,0.231-5.507,0.089c-0.174-0.013-0.218,0.282-0.042,0.309c1.814,0.27,3.81,0.395,5.662,0.094   c0.097,0.423,0.207,0.841,0.314,1.261c-2.389,0.189-4.802,0.548-7.176,0.784c-0.223,0.022-0.234,0.359,0,0.356   c2.37-0.024,4.934-0.135,7.321-0.563c0.163,0.616,0.33,1.221,0.489,1.807C38.867,65.607,35.531,66.111,32.568,66.449z" fill="#FFFFFF"/>
	<path d="M49.03,35.802c-4.12-0.181-8.385,0.242-12.501,0.507c-0.194,0.013-0.198,0.307,0,0.305   c4.123-0.05,8.407,0.043,12.501-0.451C49.256,36.136,49.268,35.813,49.03,35.802z" fill="#FFFFFF"/>
</g>
<g>
</g>
<g>
</g>
<g>
</g>
<g>
</g>
<g>
</g>
<g>
</g>
<g>
</g>
<g>
</g>
<g>
</g>
<g>
</g>
<g>
</g>
<g>
</g>
<g>
</g>
<g>
</g>
<g>
</g>
</svg>
