<?xml version="1.0" encoding="iso-8859-1"?>
<!-- Generator: Adobe Illustrator 16.0.0, SVG Export Plug-In . SVG Version: 6.00 Build 0)  -->
<!DOCTYPE svg PUBLIC "-//W3C//DTD SVG 1.1//EN" "http://www.w3.org/Graphics/SVG/1.1/DTD/svg11.dtd">
<svg xmlns="http://www.w3.org/2000/svg" xmlns:xlink="http://www.w3.org/1999/xlink" version="1.1" id="Capa_1" x="0px" y="0px" width="512px" height="512px" viewBox="0 0 193.843 193.842" style="enable-background:new 0 0 193.843 193.842;" xml:space="preserve">
<g>
	<path d="M192.277,53.1c-5.554-8.121-16.369-12.975-24.811-17.358c-9.51-4.937-17.742-8.31-28.35-4.387   c-6.246,2.31-15.479,11.516-11.526,18.229c-1.154,0.046-2.282,0.625-3.032,1.951c-2.192,3.876-4.598,7.753-7.106,11.642   C104.451,46.482,81.5,10.635,57.677,23.311C32.418,36.75,15.066,72.403,0.655,95.769c-1.916,3.106,0.681,6.13,3.751,6.538   c7.639,1.013,15.226,1.725,22.893,2.023c-3.173,21.561-9.455,42.457-9.176,64.438c0.03,2.362,1.927,4.246,4.284,4.284   c20.086,0.323,40.052,0.289,60.005-2.328c2.514-0.33,2.514-3.581,0-3.911c-18.508-2.428-37.028-2.628-55.644-2.386   c0.399-21.682,6.623-42.601,9.362-64.064c0.291-2.284-2.097-4.057-4.122-4.122c-6.884-0.222-13.632-0.83-20.418-1.67   c11.538-18.732,23.515-37.357,38.348-53.654c3.586-3.939,7.513-7.448,11.95-10.402c8.564-5.701,18.094,3.463,24.018,8.826   c10.118,9.159,18.292,20.444,26.812,31.048c-19.086,28.659-40.706,58.456-25.691,94.514c1.546,3.714,7.258,2.428,6.2-1.709   c-0.378-1.479-0.698-3.043-0.991-4.641c2.648,1.897,5.29,3.943,8.021,5.747c-2.101,0.562-4.268,1.128-6.599,1.722   c-3.046,0.776-2.483,5.977,0.757,5.594c15.528-1.834,29.715-3.222,40.68-15.281c18.298-20.123,32.846-49.284,43.261-74.201   c0.342-0.819,0.293-1.532,0.076-2.163c0.167-0.275,0.281-0.57,0.354-0.871C183.735,73.493,198.671,62.447,192.277,53.1z    M93.495,118.233c5.427-18.431,18.419-33.602,29.49-49.413c3.766,4.595,8.573,8.283,13.522,11.636   c-2.747,1.442-4.859,4.77-6.728,6.916c-4.52,5.193-8.771,10.612-12.977,16.061c-2.333,3.021-12.772,14.446-14.203,21.59   c-2.581-2.336-5.855-3.703-9.778-3.944C93.049,120.13,93.23,119.132,93.495,118.233z M141.235,83.564   c0.102,0.065,0.203,0.135,0.304,0.2c2.072,1.337,4.385,2.931,6.825,4.529c-2.242,2.317-3.196,6.313-4.723,9.027   c-3.12,5.546-6.831,10.776-10.494,15.97c-3.521,4.991-7.124,9.924-10.681,14.889c-1.299,1.811-3.025,3.755-3.527,5.908   c-2.933-2.97-7.087-3.72-11.727-2.104c-0.479-1.265-1.07-2.393-1.72-3.447c1.883-1.904,3.056-4.482,4.576-6.757   c3.839-5.738,8.345-11.068,12.769-16.359c4.14-4.951,8.43-9.782,12.717-14.608C137.434,88.695,140.433,86.432,141.235,83.564z    M104.151,163.217c-3.943-2.757-8.265-5.2-12.408-7.57c-0.256-1.74-0.411-3.566-0.577-5.379c0.076,0.1,0.156,0.2,0.274,0.281   c5.523,3.841,11.127,7.708,16.767,11.423C106.893,162.398,105.548,162.813,104.151,163.217z M128.975,147.077   c-0.674,0.866-0.893,2.06-0.449,3.002c-3.291,3.309-6.674,5.803-10.354,7.778c-3.554-3.755-8.582-6.386-13.004-8.804   c-3.844-2.104-9.77-5.688-14.423-4.623c-0.226-6.46,0.158-13.019,1.165-19.006c5.696,0.898,9.303,4.219,10.133,10.94   c0.286,2.312,2.493,4.051,4.774,2.739c4.382-2.522,8.587-1.169,9.708,4.114c0.356,1.675,2.348,2.729,3.944,2.239   c4.458-1.365,5.905,0.522,9.854,0.817C129.813,146.416,129.34,146.608,128.975,147.077z M136.417,140.261   c-0.611,0.918-1.22,1.772-1.828,2.614c-2.733-4.012-7.929-5.012-12.789-4.271c-0.267-0.688-0.583-1.3-0.912-1.894   c2.824-1.114,4.772-4.627,6.579-6.879c4.081-5.087,8.139-10.181,12.071-15.384c3.349-4.43,13.646-15.385,14.095-22.891   c2.765,1.592,5.6,2.994,8.383,3.889C153.61,110.433,145.987,125.896,136.417,140.261z M164.942,90.353   c-4.767-3.415-11.429-5.622-16.253-8.178c-8.576-4.544-16.425-9.817-23.856-16.031c0.752-1.104,1.47-2.221,2.195-3.335   c6.384,3.991,12.848,7.856,19.222,11.864c6.753,4.247,13.129,9.487,20.074,13.344C165.865,88.795,165.396,89.57,164.942,90.353z    M171.657,79.311c-0.963,1.487-1.892,2.994-2.815,4.505c-5.004-4.836-11.765-8.183-17.774-11.552   c-7.383-4.138-14.887-8.09-22.386-12.024c0.963-1.542,1.908-3.089,2.795-4.659c0.155-0.274,0.271-0.547,0.36-0.816   c14.268,6.889,26.512,16.212,39.824,24.542C171.66,79.308,171.658,79.309,171.657,79.311z M173.448,73.417   c-12.616-9.04-27.795-16.487-41.884-22.234c5.658-21.366,22.892-13.949,36.626-6.416c5.248,2.879,10.474,6.028,15.075,9.874   C189.884,60.175,177.407,69.052,173.448,73.417z" fill="#FFFFFF"/>
</g>
<g>
</g>
<g>
</g>
<g>
</g>
<g>
</g>
<g>
</g>
<g>
</g>
<g>
</g>
<g>
</g>
<g>
</g>
<g>
</g>
<g>
</g>
<g>
</g>
<g>
</g>
<g>
</g>
<g>
</g>
</svg>
