<?xml version="1.0" encoding="iso-8859-1"?>
<!-- Generator: Adobe Illustrator 18.0.0, SVG Export Plug-In . SVG Version: 6.00 Build 0)  -->
<!DOCTYPE svg PUBLIC "-//W3C//DTD SVG 1.1//EN" "http://www.w3.org/Graphics/SVG/1.1/DTD/svg11.dtd">
<svg xmlns="http://www.w3.org/2000/svg" xmlns:xlink="http://www.w3.org/1999/xlink" version="1.1" id="Capa_1" x="0px" y="0px" viewBox="0 0 63.236 63.236" style="enable-background:new 0 0 63.236 63.236;" xml:space="preserve" width="512px" height="512px">
<g>
	<path d="M60.281,10.806c0.252-0.201,0.358-0.57,0.063-0.87c-0.016-0.016-0.034-0.03-0.05-0.046   c-0.051-0.253-0.253-0.408-0.495-0.455c-6.995-6.027-21.566-0.164-26.801,5.652c-0.255,0.283,0.076,0.783,0.426,0.552   c7.155-4.725,16.937-8.745,25.378-5.098c-0.197,0.756-0.377,1.521-0.553,2.287c-0.056-0.089-0.152-0.152-0.302-0.145   c-1.586,0.074-3.068,0.383-4.675,0.274c-0.397-0.027-0.498,0.646-0.095,0.704c1.537,0.225,3.398,0.356,4.87-0.24   c0.028-0.011,0.049-0.03,0.072-0.046c-0.199,0.892-0.385,1.79-0.56,2.693c-1.096-0.2-2.23-0.128-3.341-0.111   c-1.314,0.021-2.645-0.011-3.949,0.152c-0.298,0.037-0.298,0.427,0,0.464c1.302,0.162,2.636,0.132,3.949,0.152   c1.077,0.017,2.169,0.081,3.233-0.096c-0.188,1.001-0.368,2.006-0.528,3.017c-1.312-0.124-2.679-0.003-3.987,0.048   c-0.403,0.016-0.403,0.61,0,0.626c1.271,0.05,2.597,0.163,3.876,0.057c-0.136,0.893-0.268,1.788-0.385,2.687   c-2.34-0.313-4.808-0.08-7.158-0.04c-0.407,0.007-0.408,0.626,0,0.633c2.328,0.04,4.771,0.268,7.091-0.032   c-0.125,0.998-0.251,1.997-0.354,3c-1.335-0.125-2.756,0.033-4.07,0.065c-0.407,0.01-0.408,0.623,0,0.633   c1.288,0.032,2.68,0.184,3.991,0.074c-0.095,0.982-0.184,1.965-0.26,2.95c-2.142-0.288-4.372-0.022-6.489,0.309   c-0.348,0.055-0.27,0.666,0.084,0.622c2.122-0.268,4.232-0.208,6.354-0.303c-0.085,1.158-0.16,2.316-0.221,3.473   c-0.058-0.034-0.126-0.051-0.198-0.037c-1.093,0.214-2.143,0.389-3.26,0.293c-0.384-0.033-0.367,0.543,0,0.591   c1.165,0.152,2.343,0.097,3.437-0.356c-0.051,1.019-0.096,2.037-0.13,3.054c-2.202-0.104-4.457,0.033-6.641,0.085   c-0.339,0.008-0.34,0.519,0,0.527c2.177,0.051,4.425,0.188,6.622,0.086c-0.027,0.884-0.055,1.768-0.071,2.648   c-2.059-0.102-4.172,0.019-6.218,0.111c-0.289,0.013-0.29,0.437,0,0.45c2.043,0.091,4.154,0.212,6.21,0.111   c-0.014,0.973-0.031,1.948-0.034,2.915c-1.378-0.22-2.812-0.263-4.187-0.377c-0.238-0.02-0.297,0.386-0.057,0.421   c1.386,0.203,2.828,0.494,4.244,0.587c0,1.493,0.011,2.978,0.033,4.447c0,0.026,0.011,0.044,0.014,0.067   c-0.026-0.063-0.058-0.125-0.107-0.181c-4.851-5.575-13.463-7.773-20.732-6.69c-0.449-0.201-0.895-0.405-1.344-0.606   c-0.344-0.154-0.649,0.335-0.302,0.516c0.181,0.094,0.363,0.188,0.544,0.282c-0.31,0.062-0.622,0.119-0.925,0.193   c0.458-9.288,0.411-18.626,0.255-27.921c0.156-0.12,0.235-0.33,0.104-0.548c-0.041-0.069-0.091-0.127-0.133-0.195   c-0.032-0.252-0.17-0.424-0.355-0.521C26.432,5.865,14.374,4.71,5.856,9.63c-0.506,0.292-0.554,0.801-0.361,1.204   c-0.126-0.066-0.274-0.088-0.431-0.035c-0.413,0.141-0.741,0.379-1.011,0.679c-0.081-0.022-0.169-0.031-0.268-0.012   c-1.124,0.194-2.241,0.421-3.351,0.683c-0.237,0.052-0.45,0.323-0.433,0.569C0.81,24.537-0.825,37.75,3.427,49.053   c1.204,3.201,2.534,3.421,5.858,3.162c6.2-0.481,12.329-1.541,18.151-3.761c0.481,0.8,1.592,1.03,2.439,1.161   c1.365,0.211,3.742-0.08,4.446-1.495c3.182,1.818,6.697,3.059,10.127,4.333c3.002,1.115,8.796,4.259,12.038,4.049   c4.284-0.278,3.56-7.656,3.97-10.673c1.082-7.953,1.643-15.943,2.235-23.943C62.946,18.449,64.665,11.938,60.281,10.806z    M59.343,18.296c0.431,0.027,0.875,0.059,1.321,0.071c-0.022,1.009-0.05,2.018-0.101,3.028c-0.54,0.064-1.081,0.15-1.618,0.235   C59.082,20.521,59.208,19.406,59.343,18.296z M60.032,12.538c0.36,0.247,0.631,0.779,0.835,1.519   c-0.101,0.057-0.177,0.155-0.176,0.306c0.012,1.093,0.007,2.19-0.01,3.288c-0.428,0.011-0.854,0.04-1.269,0.067   C59.621,15.992,59.836,14.269,60.032,12.538z M58.864,22.286c0.553-0.04,1.109-0.078,1.662-0.135   c-0.062,1.058-0.139,2.115-0.245,3.168c-0.597-0.006-1.199,0.022-1.797,0.049C58.611,24.341,58.737,23.313,58.864,22.286z    M58.409,25.98c0.598,0.026,1.2,0.053,1.799,0.05c-0.133,1.192-0.296,2.38-0.5,3.558c-0.577,0.143-1.127,0.185-1.743,0.006   C58.109,28.39,58.261,27.185,58.409,25.98z M57.904,30.121c0.523,0.183,1.11,0.275,1.669,0.215   c-0.039,0.209-0.071,0.42-0.113,0.628c-0.255,1.268-0.557,2.51-0.859,3.746c-0.402,0.028-0.807,0.027-1.223-0.036   C57.545,33.155,57.724,31.638,57.904,30.121z M5.68,11.857c0.191-0.17,0.216-0.411,0.144-0.624c0.268,0.197,0.627,0.27,1.008,0.066   c8.919-4.768,17.087-2.517,24.267,3.603c-0.004,0.036-0.019,0.063-0.019,0.102c0.191,9.697,0.188,19.406,0.468,29.1   c-6.873-4.007-17.33-4.748-23.741,0.483l0.601-0.827c0.099-0.137-0.064-0.308-0.208-0.271c-0.393,0.1-1.825-13.552-1.942-14.802   c-0.245-2.616-0.454-5.234-0.648-7.855C5.482,19.106,4.273,13.111,5.68,11.857z M3.982,22.798   c0.549,7.203,1.092,14.64,2.712,21.696c0.121,0.526,0.764,0.517,1.053,0.162c-0.506,0.519,0.124,1.459,0.811,1.246   c3.962-1.223,7.319-2.78,11.582-2.882c3.077-0.073,5.993,0.427,8.854,1.313c-2.788-0.091-5.576,0.096-8.337,0.557   c-4.382,0.733-11.738,5.447-14.267-0.655c-1.52-3.669-1.675-8.698-2.356-12.616c-0.817-4.704-2.513-10.064-0.883-14.721   C3.362,19.173,3.883,21.5,3.982,22.798z M3.342,12.816c-0.205,0.699-0.281,1.521-0.278,2.394c-0.023,0.021-0.049,0.037-0.069,0.064   c-1.181,1.563-1.639,3.235-1.713,4.961C0.955,17.097,1.034,13.907,3.342,12.816z M56.683,54.181   c-1.57,0.901-5.472-1.224-7.168-1.811c-4.935-1.708-9.885-3.874-14.992-5.015c0-0.003,0.001-0.005,0.001-0.008   c0.021-0.413-0.52-0.759-0.873-0.501c-0.373,0.273-0.604,0.664-0.975,0.935c-0.443,0.323-1.01,0.455-1.547,0.509   c-0.48,0.048-0.972,0.027-1.448-0.046c-0.266-0.041-0.56-0.079-0.812-0.18c-0.266-0.106-0.663-0.437-0.748-0.377   c0.302-0.21,0.125-0.802-0.271-0.643c-0.268,0.108-0.448,0.282-0.54,0.494c-5.388,0.866-10.743,2-16.172,2.597   c-3.852,0.424-5.21-0.08-6.761-4.026c-0.81-2.06-1.062-4.472-1.375-6.648c-0.653-4.545-0.821-9.142-1.073-13.723   c0.105,0.501,0.213,1.001,0.316,1.501c1.235,5.937,1.514,13.297,3.901,18.865c1.062,2.476,2.581,3.15,5.169,2.635   c2.675-0.532,5.232-1.84,7.93-2.417c3.989-0.853,7.928-1.032,11.989-1.019c0.112,0,0.194-0.038,0.259-0.09   c0.124,0.048,0.249,0.091,0.373,0.141c0.494,0.196,0.764-0.533,0.388-0.824c0.006-0.118,0.008-0.238,0.014-0.356   c0.014,0.001,0.021,0.014,0.037,0.013c0.797-0.05,1.564-0.067,2.318-0.067c5.842,3.028,11.701,6.014,17.636,8.859   c1.635,0.784,3.329,1.785,4.592,1.074C56.798,54.098,56.744,54.146,56.683,54.181z M57.042,50.224   c-2.313,3.817-7.098,0.17-9.517-0.973c-3.669-1.734-7.36-3.414-11.058-5.081c6.652,0.375,11.823,2.796,17.829,6.701   c0.505,0.328,0.97-0.183,0.896-0.661c0.184,0.384,0.86,0.314,0.885-0.205c0.024-0.499,0.062-0.995,0.09-1.493   c0.409,0.004,0.819,0.007,1.228,0.007C57.37,49.231,57.274,49.842,57.042,50.224z M56.187,48.172c0.081-1.414,0.18-2.823,0.29-4.23   c0.215,0.028,0.43,0.057,0.643,0.068c0.074,1.179,0.284,2.804,0.281,4.154C56.996,48.166,56.592,48.168,56.187,48.172z    M57.099,43.07c-0.006,0.112-0.005,0.243-0.002,0.377c-0.192-0.005-0.385-0.023-0.578-0.044c0.103-1.285,0.217-2.568,0.339-3.849   c0.219,0.009,0.439,0.018,0.66,0.029C57.316,40.725,57.16,41.882,57.099,43.07z M56.901,39.129c0.124-1.277,0.27-2.55,0.409-3.824   c0.375,0.063,0.751,0.09,1.126,0.091c-0.299,1.23-0.592,2.458-0.828,3.701C57.372,39.109,57.136,39.119,56.901,39.129z    M58.455,47.237c-0.038,0.262-0.07,0.587-0.101,0.937c-0.01,0-0.021,0-0.031,0c-0.095-1.193-0.235-2.363-0.239-3.319   c-0.001-0.291,0.009-0.577,0.016-0.865c0.289-0.025,0.576-0.069,0.862-0.134C58.719,45.506,58.532,46.712,58.455,47.237z    M59.049,43.254c-0.311,0.065-0.624,0.116-0.938,0.149c0.053-1.284,0.196-2.538,0.376-3.786c0.361,0.006,0.721,0.003,1.077-0.027   C59.382,40.933,59.206,42.179,59.049,43.254z M59.63,39.109c-0.011-0.002-0.015-0.012-0.028-0.013   c-0.343-0.031-0.69-0.034-1.038-0.03c0.195-1.244,0.444-2.486,0.713-3.735c0.293-0.045,0.58-0.118,0.864-0.219   C59.972,36.506,59.799,37.851,59.63,39.109z M60.219,34.452c-0.003,0.001-0.004-0.002-0.007-0.001   c-0.262,0.061-0.52,0.113-0.779,0.159c0.059-0.265,0.111-0.528,0.173-0.795c0.281-1.219,0.506-2.44,0.696-3.662   c0.144-0.059,0.283-0.13,0.413-0.218C60.564,31.455,60.395,32.976,60.219,34.452z M60.766,29.393   c-0.064-0.052-0.151-0.077-0.259-0.041c-0.03,0.01-0.059,0.019-0.088,0.028c0.159-1.122,0.282-2.246,0.387-3.371   c0.085-0.004,0.17-0.007,0.255-0.013C60.975,27.113,60.876,28.251,60.766,29.393z M61.106,25.358   c-0.082-0.006-0.164-0.008-0.246-0.013c0.093-1.085,0.161-2.173,0.226-3.261c0.068-0.009,0.135-0.021,0.203-0.031   C61.245,23.118,61.187,24.217,61.106,25.358z M61.318,21.328c-0.061,0.004-0.122,0.009-0.183,0.014   c0.054-0.99,0.096-1.982,0.139-2.975c0.023-0.001,0.045-0.008,0.069-0.009C61.361,19.279,61.351,20.277,61.318,21.328z" fill="#FFFFFF"/>
	<path d="M27.875,18.174c-0.152-1.964-0.357-2.888-2.113-3.848c-4.767-2.605-11.364-2.074-16.095,0.383   c-0.469-0.264-1.183-0.068-1.168,0.632C8.602,20.387,9.101,25.4,9.821,30.393c0.072,0.495,0.672,0.707,1.092,0.62   c5.549-1.155,11.071-2.163,16.682-0.818c0.484,0.116,1.071-0.238,1.034-0.787C28.378,25.664,28.165,21.915,27.875,18.174z    M11.421,29.101c-0.664-4.571-1.077-9.148-1.358-13.76c-0.001-0.017-0.01-0.028-0.011-0.044c4.212-1.259,9.423-2.04,13.506-0.074   c3.109,1.497,2.824,3.922,3.004,6.915c0.124,2.074,0.249,4.148,0.373,6.222C21.719,27.263,16.607,28.054,11.421,29.101z" fill="#FFFFFF"/>
</g>
<g>
</g>
<g>
</g>
<g>
</g>
<g>
</g>
<g>
</g>
<g>
</g>
<g>
</g>
<g>
</g>
<g>
</g>
<g>
</g>
<g>
</g>
<g>
</g>
<g>
</g>
<g>
</g>
<g>
</g>
</svg>
