<?xml version="1.0" encoding="iso-8859-1"?>
<!-- Generator: Adobe Illustrator 18.0.0, SVG Export Plug-In . SVG Version: 6.00 Build 0)  -->
<!DOCTYPE svg PUBLIC "-//W3C//DTD SVG 1.1//EN" "http://www.w3.org/Graphics/SVG/1.1/DTD/svg11.dtd">
<svg xmlns="http://www.w3.org/2000/svg" xmlns:xlink="http://www.w3.org/1999/xlink" version="1.1" id="Capa_1" x="0px" y="0px" viewBox="0 0 62.754 62.754" style="enable-background:new 0 0 62.754 62.754;" xml:space="preserve" width="512px" height="512px">
<g>
	<path d="M52.701,55.18c0.773-0.762,1.483-1.606,2.1-2.557c3.488-5.368,3.613-12.41,1.922-18.406   c-3.618-12.83-16.595-21.413-29.772-18.774c-0.116-0.087-0.253-0.154-0.436-0.158C11.964,14.957,4.948,29.783,8.175,42.514   c1.11,4.38,3.306,8.526,6.35,11.888c-2.361,1.518-4.607,4.586-2.29,7.21c2.493,2.823,6.423-0.14,7.375-2.887   c5.761,3.608,12.199,3.794,18.896,2.637c2.851-0.493,5.765-1.216,8.436-2.388c1.26,2.339,4.429,4.362,6.818,3.085   c1.352-0.723,1.851-2.252,1.487-3.702C54.91,57.016,53.88,55.916,52.701,55.18z M13.403,60.058   c-1.038-1.732,0.613-3.685,1.812-4.921c0.988,1.01,2.047,1.951,3.194,2.78C17.333,58.98,14.931,62.609,13.403,60.058z    M47.583,56.222c-3.386,0.169-6.786,0.747-10.108,1.296c-0.286,0.047-0.223,0.545,0.069,0.511c2.642-0.309,5.315-0.515,7.971-0.803   c-1.723,0.731-3.556,1.274-5.408,1.684C28.14,61.557,16.91,57.955,11.379,46.395c-5.789-12.099-0.285-29.85,15.137-29.563   c0.147,0.003,0.265-0.035,0.368-0.091c5.879-0.443,11.589,0.646,16.399,3.286c-1.029,0.001-2.059,0.038-3.087,0.076   c-0.294,0.011-0.294,0.446,0,0.457c1.332,0.048,2.667,0.122,4,0.077c0.037-0.001,0.054-0.027,0.084-0.038   c1.16,0.708,2.262,1.512,3.294,2.411c-0.902-0.028-1.823,0.052-2.711,0.074c-0.317,0.008-0.317,0.484,0,0.492   c1.104,0.028,2.259,0.137,3.366,0.022c0.873,0.82,1.696,1.707,2.451,2.675c-1.175-0.052-2.493,0.261-3.541,0.519   c-0.293,0.072-0.167,0.502,0.123,0.448c0.802-0.151,1.608-0.25,2.424-0.275c0.498-0.015,0.999,0.029,1.494,0.004   c1.084,1.495,2.039,3.138,2.811,4.963c0.151,0.356,0.287,0.717,0.42,1.081c-0.407,0.012-0.814,0.035-1.216,0.047   c-0.348,0.011-0.349,0.531,0,0.542c0.475,0.014,0.956,0.036,1.435,0.043c0.397,1.184,0.712,2.398,0.924,3.631   c-0.123,0.03-0.245,0.064-0.37,0.086c-0.549,0.097-1.101,0.099-1.654,0.048c-0.27-0.025-0.334,0.431-0.065,0.476   c0.673,0.114,1.471,0.181,2.197,0.049c0.167,1.161,0.249,2.334,0.236,3.504c-0.907,0.168-1.762,0.361-2.703,0.292   c-0.288-0.021-0.361,0.468-0.069,0.511c0.912,0.133,1.884,0.141,2.76-0.168c-0.043,1.052-0.157,2.1-0.361,3.132   c-0.332,0.067-0.659,0.15-0.995,0.2c-0.557,0.083-1.105,0.055-1.664,0.009c-0.25-0.02-0.298,0.376-0.059,0.435   c0.781,0.194,1.756,0.255,2.581,0.018c-0.251,1.073-0.595,2.127-1.038,3.151c-0.056,0.129-0.12,0.248-0.179,0.374   c-1.306,0.004-2.712,0.314-3.972,0.455c-0.276,0.031-0.29,0.458,0,0.443c1.128-0.056,2.398,0.013,3.577-0.113   c-0.465,0.849-1,1.627-1.598,2.335c-0.484,0.12-0.968,0.246-1.457,0.351c-1.496,0.32-3.003,0.484-4.527,0.608   c-0.299,0.024-0.307,0.463,0,0.471c1.507,0.04,3.271,0,4.926-0.311C50.066,54.646,48.876,55.506,47.583,56.222z M51.983,60.512   c-1.537,0-2.651-1.096-3.609-2.226c1.034-0.541,2.017-1.165,2.932-1.881c0.6,0.466,1.229,0.907,1.646,1.552   C53.632,59.006,53.503,60.512,51.983,60.512z" fill="#FFFFFF"/>
	<path d="M51.612,35.156c-3.824-9.7-14.803-16.988-25.278-14.812c-9.649,2.005-14.971,11.524-12.705,20.923   c2.435,10.096,12.888,16.424,22.902,15.708c0.273-0.02,0.437-0.184,0.497-0.379C46.556,53.729,55.954,46.168,51.612,35.156z    M35.392,55.197c-0.314,0.093-0.489,0.299-0.571,0.535c-0.928-0.104-1.858-0.248-2.782-0.426c0.021-0.045,0.047-0.086,0.057-0.142   c0.23-1.313,0.436-2.5,0.295-3.835c-0.064-0.601-0.891-0.776-1.088-0.147c-0.399,1.279-0.438,2.479-0.467,3.811   c0,0.021,0.009,0.037,0.011,0.057C24.12,53.5,17.913,49.829,15.57,42.855c-0.342-1.019-0.583-2.052-0.734-3.086   c1.532,0.19,3.02,0.48,4.544,0.774c0.581,0.112,1.052-0.744,0.433-1.028c-1.569-0.719-3.361-0.919-5.073-0.653   c-0.677-7.23,3.19-14.294,10.658-16.5c1.622-0.479,3.256-0.69,4.873-0.683c-0.03,0.096-0.053,0.2-0.057,0.319   c-0.036,1.278,0.174,2.516,0.729,3.67c0.353,0.734,1.3,0.164,1.205-0.508c-0.137-0.964-0.173-1.939,0.017-2.898   c0.035-0.179,0.032-0.34-0.002-0.481c6.672,0.752,12.822,5.237,16.212,11.1C55.029,44.388,45.78,52.132,35.392,55.197z" fill="#FFFFFF"/>
	<path d="M56.156,7.81c-3.394-1.908-7.436-2.175-11.108-0.942c-3.011-4.862-8.342-7.425-14.057-6.766   c-3.052,0.352-10.859,2.901-11.485,6.674C15.306,3.572,8.394,3.606,4.303,6.704c-6.016,4.557-5.156,16.608,1.197,20.549   c0.155,0.096,0.308,0.083,0.434,0.016c0.311,0.054,0.694-0.165,0.72-0.544c0.267-3.834,4.167-7.7,6.934-10.043   c2.54-2.151,5.451-3.288,8.324-4.774c0.277,0.02,0.557-0.124,0.683-0.361c0.07-0.038,0.141-0.073,0.211-0.111   c0.529-0.291,0.316-1.23-0.319-1.179c-0.061,0.005-0.121,0.015-0.182,0.021c-0.483-1.109-1.184-2.047-2.021-2.841   c0.05-0.071,0.077-0.157,0.063-0.244c-0.009-0.06-0.018-0.119-0.028-0.179c-0.019-0.122-0.149-0.171-0.263-0.152   c0.653-0.403,3.207-1.95,4.062-2.448c2.205-1.284,4.47-2.165,7.002-2.429c4.91-0.513,9.367,1.459,12.021,5.62   c-1.949,0.876-4.089,2.256-4.062,4.266c-0.187-0.011-0.377-0.033-0.562-0.039c-0.699-0.021-0.879,1.109-0.168,1.243   c4.01,0.757,7.81,1.981,11.208,4.311c3.443,2.361,5.552,5.41,8.152,8.558c0.181,0.611,0.908,1.016,1.519,0.422   C64.937,20.819,62.785,11.537,56.156,7.81z M20.379,10.626c-0.597,0.157-1.184,0.366-1.765,0.601   c-0.931-0.135-1.887-0.126-2.826-0.161c-1.19-0.045-2.404-0.157-3.588-0.023c-0.244,0.028-0.343,0.398-0.063,0.463   c1.025,0.236,2.092,0.272,3.138,0.352c0.553,0.042,1.114,0.104,1.676,0.151c-0.867,0.459-1.712,0.975-2.515,1.543   c-1.406-0.049-2.857,0.089-4.24,0.121c-0.421,0.01-0.421,0.644,0,0.654c0.991,0.023,2.017,0.098,3.037,0.124   c-0.716,0.569-1.395,1.161-2.026,1.758c-1.335-0.052-2.761,0.113-4.012,0.204c-0.325,0.024-0.326,0.483,0,0.506   c0.962,0.07,2.026,0.181,3.073,0.207c-2.231,2.269-4.788,5.51-4.809,8.654c-3.592-4.59-4.63-13.696,0.39-17.309   c2.849-2.051,6.474-2.53,9.772-1.339C17.708,7.884,18.972,9.205,20.379,10.626z M57.196,20.974   c0.914,0.019,1.823,0.045,2.733,0.029c-0.329,1.168-0.848,2.309-1.577,3.37c-2.772-6.729-10.603-11.391-17.735-12.353c0,0,0,0,0,0   c0.107-2.275,5.498-3.448,7.144-3.684c2.753-0.396,5.484,0.086,7.879,1.563c0.285,0.176,0.536,0.374,0.795,0.568   c-1.466,0.014-2.989,0.269-4.321,0.537c-0.284,0.057-0.225,0.54,0.069,0.511c1.054-0.103,2.105-0.191,3.165-0.199   c0.721-0.006,1.45,0.066,2.174,0.09c0.767,0.767,1.393,1.615,1.84,2.532c-1.599-0.093-3.285,0.08-4.834,0.16   c-0.303,0.016-0.303,0.455,0,0.471c1.654,0.086,3.463,0.269,5.155,0.128c0.27,0.706,0.461,1.437,0.558,2.184   c-0.544,0.167-1.059,0.401-1.631,0.493c-0.803,0.13-1.604,0.055-2.385-0.162c-0.199-0.055-0.272,0.236-0.084,0.305   c1.238,0.457,2.936,0.629,4.162-0.031c0.063,0.941-0.004,1.898-0.205,2.844c-0.967-0.023-1.933,0.007-2.904,0.027   C56.798,20.364,56.798,20.966,57.196,20.974z" fill="#FFFFFF"/>
	<path d="M32.692,37.775c1.261-2.138,2.817-4.53,3.096-6.874c0.085-0.719-0.887-0.969-1.335-0.553   c-1.686,1.566-2.693,4.333-3.655,6.572c-0.032,0.004-0.064,0.014-0.096,0.019c-2.208-1.16-4.188-3.187-5.915-4.87   c-0.497-0.484-1.164,0.229-0.746,0.746c1.574,1.946,3.455,3.394,5.271,5.004c-0.588,0.88-0.445,2.135,0.546,2.715   c0.259,0.152,0.55,0.235,0.845,0.256c0.371,0.207,0.808,0.21,1.205,0.009c1.009-0.512,1.426-1.909,0.878-2.897   C32.759,37.855,32.722,37.819,32.692,37.775z" fill="#FFFFFF"/>
	<path d="M47.429,38.81c-0.813-0.238-1.65,0.04-2.469,0.18c-0.89,0.152-1.775,0.312-2.659,0.497   c-0.922,0.193-0.729,1.721,0.224,1.657c0.901-0.061,1.796-0.146,2.694-0.24c0.82-0.086,1.706-0.042,2.419-0.487   C48.281,40.016,48.165,39.026,47.429,38.81z" fill="#FFFFFF"/>
	<path d="M52.927,30.101c-0.973-0.179-2.079,0.003-3.064,0.041c-0.244,0.01-0.245,0.37,0,0.38   c0.985,0.038,2.091,0.22,3.064,0.041C53.155,30.52,53.155,30.143,52.927,30.101z" fill="#FFFFFF"/>
	<path d="M19.03,9.364C17.2,8.39,14.791,8.47,12.8,8.783c-0.277,0.043-0.213,0.509,0.066,0.49   c2.08-0.142,3.904,0.37,5.928,0.65C19.108,9.967,19.365,9.543,19.03,9.364z" fill="#FFFFFF"/>
</g>
<g>
</g>
<g>
</g>
<g>
</g>
<g>
</g>
<g>
</g>
<g>
</g>
<g>
</g>
<g>
</g>
<g>
</g>
<g>
</g>
<g>
</g>
<g>
</g>
<g>
</g>
<g>
</g>
<g>
</g>
</svg>
